<svg width="24" height="16" viewBox="0 0 24 16" fill="none" xmlns="http://www.w3.org/2000/svg"><path fill-rule="evenodd" clip-rule="evenodd" d="M0 8c0-.236.09-.462.251-.628a.842.842 0 01.606-.26h20.215l-5.394-5.593a.894.894 0 01-.252-.63.919.919 0 01.252-.628.855.855 0 01.607-.261.832.832 0 01.607.26l6.856 7.11A.894.894 0 0124 8a.917.917 0 01-.252.63l-6.857 7.11a.832.832 0 01-1.214 0 .895.895 0 01-.25-.63.919.919 0 01.25-.63l5.395-5.591H.857a.842.842 0 01-.606-.26A.906.906 0 010 8z" fill="#E5004F"/></svg>