<svg width="40" height="40" viewBox="0 0 40 40" fill="none" xmlns="http://www.w3.org/2000/svg"><path d="M20.472 10.237h-5.119v5.12h-5.118v5.118h5.119v5.118h5.118v-5.118h5.119v-5.119h-5.119v-5.119zM40 35.544l-7.394-7.394a17.811 17.811 0 003.225-10.235C35.83 8.021 27.807 0 17.915 0 8.024 0 0 8.021 0 17.915c0 9.895 8.021 17.916 17.915 17.916a17.82 17.82 0 0010.238-3.225L35.547 40 40 35.544zm-22.087-4.83c-7.066 0-12.797-5.727-12.797-12.796 0-7.069 5.73-12.797 12.797-12.797 7.069 0 12.797 5.728 12.797 12.797.002 7.069-5.726 12.797-12.797 12.797z" fill="#ffa6c4"/></svg>