<svg viewBox="0 0 32 32" fill="none" xmlns="http://www.w3.org/2000/svg"><path d="M16 .348c4.253 0 4.783.015 6.452.094 1.667.078 2.801.34 3.8.728a7.632 7.632 0 012.774 1.804 7.683 7.683 0 011.804 2.774c.387.997.65 2.133.728 3.8.074 1.669.094 2.2.094 6.452 0 4.253-.016 4.783-.094 6.452-.078 1.667-.341 2.802-.728 3.8a7.643 7.643 0 01-1.804 2.774 7.694 7.694 0 01-2.774 1.805c-.997.386-2.133.649-3.8.727-1.669.074-2.2.094-6.452.094-4.253 0-4.784-.015-6.452-.094-1.667-.078-2.802-.34-3.8-.727a7.655 7.655 0 01-2.774-1.805 7.677 7.677 0 01-1.805-2.774c-.388-.997-.65-2.133-.727-3.8C.368 20.783.348 20.252.348 16c0-4.253.015-4.783.094-6.452.078-1.668.34-2.802.727-3.8a7.638 7.638 0 011.805-2.774A7.665 7.665 0 015.748 1.17c.998-.39 2.131-.65 3.8-.728C11.216.368 11.748.348 16 .348zm0 7.826a7.826 7.826 0 100 15.652 7.826 7.826 0 000-15.652zm10.174-.391a1.957 1.957 0 10-3.913 0 1.957 1.957 0 003.913 0zM16 11.304a4.696 4.696 0 110 9.392 4.696 4.696 0 010-9.392z" fill="#B694C0"/></svg>