<svg width="22" height="14" viewBox="0 0 22 14" fill="none" xmlns="http://www.w3.org/2000/svg"><path fill-rule="evenodd" clip-rule="evenodd" d="M.002 7c0 .206.079.404.22.55.14.146.331.228.53.228H18.44l-4.72 4.893a.779.779 0 00-.22.55.804.804 0 00.22.55.749.749 0 00.531.229.726.726 0 00.531-.228l6-6.221a.78.78 0 00.22-.551.803.803 0 00-.22-.55l-6-6.222A.75.75 0 0014.251 0a.727.727 0 00-.53.228.78.78 0 00-.22.55.804.804 0 00.22.551l4.72 4.893H.75a.737.737 0 00-.53.228.792.792 0 00-.219.55z" fill="#5C3668"/></svg>