<svg viewBox="0 0 32 32" fill="none" xmlns="http://www.w3.org/2000/svg"><path d="M22.39 7.724l-6 6 1.886 1.885 6-6L28 13.333V4h-9.333l3.724 3.724z" fill="#B694C0"/><path d="M21.896 17.928a1.335 1.335 0 00-1.854.057l-3.191 3.282c-.768-.147-2.312-.628-3.901-2.214-1.59-1.59-2.071-3.138-2.214-3.901l3.279-3.192a1.333 1.333 0 00.057-1.855L9.146 4.688a1.333 1.333 0 00-1.855-.116L4.399 7.053c-.231.23-.37.538-.388.864-.02.334-.401 8.23 5.721 14.355 5.342 5.341 12.032 5.732 13.875 5.732.27 0 .435-.008.479-.01.326-.019.634-.157.864-.389l2.48-2.894a1.333 1.333 0 00-.115-1.855l-5.419-4.928z" fill="#B694C0"/></svg>