<?xml version="1.0" encoding="utf-8"?><svg width="180" height="52" fill="none" xmlns="http://www.w3.org/2000/svg" viewBox="0 0 180 52"><path d="M179 46.004c0 2.771-2.291 5.016-5.126 5.016H6.132C3.3 51.02 1 48.775 1 46.004v-40C1 3.234 3.3.982 6.132.982h167.741c2.836 0 5.126 2.252 5.126 5.022l.001 40z" fill="#000"/><path d="M173.333 1.042c3.087 0 5.599 2.449 5.599 5.458v39c0 3.01-2.512 5.458-5.599 5.458H6.667c-3.087 0-5.599-2.448-5.599-5.458v-39c0-3.01 2.512-5.458 5.599-5.458h166.666zm0-1.042H6.667C3.002 0 0 2.927 0 6.5v39C0 49.073 3.002 52 6.667 52h166.666c3.665 0 6.667-2.927 6.667-6.5v-39c0-3.573-3.002-6.5-6.667-6.5z" fill="#A6A6A6"/><path d="M40.17 25.719c-.038-4.19 3.52-6.228 3.682-6.323-2.015-2.864-5.138-3.255-6.235-3.287-2.623-.269-5.167 1.53-6.503 1.53-1.362 0-3.42-1.503-5.637-1.46-2.853.044-5.523 1.654-6.986 4.155-3.022 5.1-.768 12.595 2.126 16.717 1.448 2.019 3.14 4.273 5.355 4.194 2.166-.087 2.976-1.347 5.59-1.347 2.591 0 3.351 1.347 5.61 1.296 2.325-.036 3.79-2.028 5.186-4.065 1.674-2.314 2.346-4.593 2.372-4.71-.054-.018-4.516-1.678-4.56-6.7zM35.904 13.398c1.165-1.421 1.962-3.354 1.741-5.316-1.687.073-3.796 1.138-5.01 2.527-1.075 1.225-2.035 3.232-1.787 5.12 1.894.137 3.84-.932 5.056-2.331zM71.527 40.955h-3.028l-1.659-5.082h-5.765l-1.58 5.082h-2.948l5.712-17.301h3.528l5.74 17.3zM66.34 33.74l-1.5-4.518c-.158-.461-.456-1.548-.894-3.26h-.054c-.174.737-.456 1.824-.842 3.26l-1.474 4.518h4.764zM86.216 34.564c0 2.121-.588 3.798-1.764 5.03-1.053 1.096-2.361 1.643-3.922 1.643-1.686 0-2.896-.59-3.634-1.77h-.053v6.57H74v-13.45a83.25 83.25 0 00-.105-4.107h2.5l.159 1.977h.053c.948-1.49 2.387-2.233 4.317-2.233 1.51 0 2.77.58 3.778 1.744 1.01 1.165 1.514 2.696 1.514 4.596zm-2.896.101c0-1.214-.28-2.215-.842-3.003-.615-.821-1.44-1.232-2.475-1.232-.701 0-1.339.229-1.908.68a3.142 3.142 0 00-1.119 1.785 3.544 3.544 0 00-.132.845v2.08c0 .907.286 1.673.856 2.298.571.625 1.312.937 2.224.937 1.071 0 1.904-.403 2.5-1.206.598-.805.896-1.866.896-3.184zM100.932 34.564c0 2.121-.588 3.798-1.765 5.03-1.052 1.096-2.36 1.643-3.921 1.643-1.686 0-2.896-.59-3.632-1.77h-.054v6.57h-2.842v-13.45c0-1.334-.036-2.703-.106-4.107h2.5l.159 1.977h.053c.947-1.49 2.386-2.233 4.318-2.233 1.508 0 2.768.58 3.778 1.744 1.007 1.165 1.512 2.696 1.512 4.596zm-2.896.101c0-1.214-.281-2.215-.844-3.003-.614-.821-1.437-1.232-2.473-1.232-.703 0-1.339.229-1.91.68a3.14 3.14 0 00-1.117 1.785c-.086.343-.132.624-.132.845v2.08c0 .907.286 1.673.854 2.298.57.624 1.312.937 2.226.937 1.071 0 1.904-.403 2.5-1.206.598-.805.896-1.866.896-3.184zM117.386 36.104c0 1.471-.524 2.669-1.576 3.593-1.156 1.01-2.766 1.514-4.834 1.514-1.909 0-3.44-.358-4.598-1.077l.658-2.31c1.248.736 2.618 1.105 4.11 1.105 1.07 0 1.904-.237 2.502-.708.596-.47.894-1.102.894-1.89 0-.702-.246-1.293-.738-1.773-.489-.48-1.306-.925-2.448-1.338-3.106-1.13-4.658-2.784-4.658-4.96 0-1.423.544-2.589 1.633-3.496 1.085-.909 2.533-1.363 4.344-1.363 1.615 0 2.956.275 4.027.822l-.711 2.26c-1-.531-2.131-.796-3.396-.796-1 0-1.781.24-2.341.719-.474.427-.711.949-.711 1.566 0 .684.271 1.25.815 1.694.473.41 1.333.855 2.581 1.335 1.527.6 2.648 1.3 3.369 2.104.719.8 1.078 1.803 1.078 2.999zM126.784 30.56h-3.133v6.057c0 1.54.552 2.31 1.659 2.31.508 0 .929-.043 1.262-.13l.079 2.106c-.56.204-1.297.306-2.211.306-1.122 0-2-.334-2.633-1-.631-.669-.948-1.79-.948-3.364v-6.288h-1.867v-2.08h1.867v-2.284l2.792-.821v3.105h3.133v2.083zM140.922 34.615c0 1.917-.563 3.492-1.686 4.723-1.177 1.267-2.74 1.9-4.688 1.9-1.877 0-3.372-.608-4.486-1.822-1.115-1.214-1.672-2.747-1.672-4.594 0-1.933.573-3.517 1.724-4.748 1.148-1.232 2.697-1.848 4.645-1.848 1.877 0 3.388.607 4.528 1.822 1.091 1.18 1.635 2.701 1.635 4.567zm-2.95.09c0-1.15-.252-2.137-.762-2.96-.596-.996-1.448-1.493-2.552-1.493-1.143 0-2.011.498-2.607 1.493-.511.824-.763 1.826-.763 3.012 0 1.15.252 2.137.763 2.959.615.995 1.473 1.492 2.581 1.492 1.086 0 1.938-.507 2.552-1.518.524-.839.788-1.836.788-2.985zM150.162 30.917a5.07 5.07 0 00-.896-.077c-1 0-1.774.368-2.318 1.105-.473.65-.71 1.472-.71 2.464v6.546h-2.842l.027-8.547c0-1.438-.036-2.747-.107-3.927h2.476l.104 2.387h.079c.3-.82.773-1.48 1.421-1.976.634-.446 1.318-.668 2.055-.668.263 0 .5.018.711.05v2.643zM162.875 34.127c0 .497-.033.916-.104 1.258h-8.528c.033 1.232.445 2.174 1.237 2.824.719.581 1.648.873 2.79.873 1.262 0 2.414-.197 3.45-.59l.446 1.924c-1.211.514-2.64.77-4.29.77-1.984 0-3.541-.569-4.674-1.706-1.131-1.138-1.698-2.665-1.698-4.582 0-1.88.527-3.447 1.582-4.697 1.104-1.333 2.596-2 4.473-2 1.844 0 3.24.667 4.188 2 .751 1.06 1.128 2.37 1.128 3.926zm-2.711-.719c.019-.821-.166-1.53-.552-2.13-.492-.771-1.248-1.156-2.265-1.156-.929 0-1.685.376-2.263 1.13-.473.6-.754 1.318-.841 2.155h5.921v.002zM65.4 13.013c0 1.53-.47 2.682-1.41 3.455-.871.714-2.108 1.071-3.711 1.071a17.64 17.64 0 01-2.044-.101v-8.36a15.46 15.46 0 012.407-.177c1.526 0 2.677.324 3.453.971.87.732 1.305 1.778 1.305 3.14zm-1.473.037c0-.992-.27-1.752-.808-2.282-.539-.53-1.325-.795-2.361-.795-.44 0-.815.029-1.126.089v6.355c.172.026.487.038.944.038 1.07 0 1.895-.29 2.476-.87.581-.58.875-1.424.875-2.535zM73.212 14.35c0 .942-.276 1.714-.828 2.32-.579.623-1.345.933-2.302.933-.923 0-1.658-.297-2.206-.896-.547-.596-.82-1.349-.82-2.256 0-.95.282-1.728.847-2.333.565-.604 1.325-.907 2.282-.907.923 0 1.665.298 2.226.894.533.58.801 1.329.801 2.244zm-1.45.043c0-.565-.124-1.05-.374-1.454-.293-.49-.71-.733-1.253-.733-.562 0-.988.244-1.282.733-.25.404-.374.897-.374 1.48 0 .565.125 1.05.374 1.454.303.489.725.733 1.269.733.533 0 .951-.248 1.253-.746.258-.412.388-.901.388-1.466zM83.687 11.336l-1.967 6.129h-1.28l-.815-2.661a19.484 19.484 0 01-.505-1.98h-.025c-.122.673-.29 1.332-.506 1.98l-.865 2.661H76.43l-1.849-6.129h1.436l.71 2.914c.173.689.314 1.345.427 1.967h.026a21.36 21.36 0 01.518-1.954l.892-2.925h1.14l.854 2.863c.206.698.374 1.37.504 2.017h.038c.095-.63.238-1.302.427-2.018l.763-2.862h1.372v-.002zM90.93 17.463h-1.397v-3.51c0-1.08-.42-1.621-1.266-1.621-.415 0-.75.148-1.01.445a1.559 1.559 0 00-.388 1.05v3.635h-1.397v-4.375c0-.538-.017-1.122-.05-1.754h1.227l.066.958h.038a1.99 1.99 0 01.724-.74 2.407 2.407 0 011.267-.344c.587 0 1.075.185 1.463.555.482.454.724 1.131.724 2.03v3.671zM94.784 17.464h-1.396v-8.94h1.396v8.94zM103.011 14.35c0 .942-.276 1.714-.828 2.32-.579.623-1.347.933-2.303.933-.924 0-1.658-.297-2.205-.896-.547-.596-.82-1.349-.82-2.256 0-.95.281-1.728.847-2.333.565-.604 1.325-.907 2.281-.907.924 0 1.664.298 2.227.894.533.58.801 1.329.801 2.244zm-1.451.043c0-.565-.125-1.05-.374-1.454-.292-.49-.711-.733-1.252-.733-.563 0-.99.244-1.282.733-.25.404-.374.897-.374 1.48 0 .565.125 1.05.374 1.454.303.489.724.733 1.268.733.534 0 .951-.248 1.252-.746.26-.412.388-.901.388-1.466zM109.773 17.464h-1.254l-.104-.706h-.039c-.429.563-1.041.845-1.836.845-.593 0-1.073-.186-1.435-.555-.328-.335-.492-.753-.492-1.248 0-.749.32-1.32.964-1.715.643-.395 1.547-.589 2.711-.58v-.114c0-.807-.435-1.21-1.305-1.21-.62 0-1.167.152-1.639.454l-.284-.895c.584-.352 1.305-.53 2.156-.53 1.643 0 2.467.846 2.467 2.536v2.257c0 .612.03 1.1.09 1.461zm-1.45-2.106v-.945c-1.542-.026-2.312.386-2.312 1.235 0 .32.088.559.268.719.18.16.409.24.682.24.307 0 .594-.096.855-.284a1.157 1.157 0 00.507-.965zM117.714 17.464h-1.24l-.066-.984h-.038c-.396.749-1.071 1.123-2.019 1.123-.757 0-1.388-.29-1.888-.87-.5-.58-.749-1.332-.749-2.256 0-.992.27-1.796.814-2.41.527-.571 1.172-.857 1.94-.857.844 0 1.435.277 1.771.832h.027V8.524h1.398v7.29c0 .596.016 1.146.05 1.65zm-1.448-2.584v-1.022c0-.177-.014-.32-.039-.43a1.548 1.548 0 00-.505-.825 1.396 1.396 0 00-.935-.334c-.521 0-.929.202-1.229.606-.298.404-.448.92-.448 1.551 0 .606.142 1.097.429 1.476a1.45 1.45 0 001.221.604c.459 0 .826-.168 1.104-.504.27-.311.402-.685.402-1.122zM129.664 14.35c0 .942-.276 1.714-.828 2.32-.578.623-1.344.933-2.302.933-.922 0-1.656-.297-2.206-.896-.546-.596-.82-1.349-.82-2.256 0-.95.282-1.728.847-2.333.565-.604 1.325-.907 2.284-.907.921 0 1.664.298 2.224.894.533.58.801 1.329.801 2.244zm-1.448.043c0-.565-.125-1.05-.374-1.454-.295-.49-.711-.733-1.255-.733-.56 0-.987.244-1.281.733-.251.404-.375.897-.375 1.48 0 .565.125 1.05.375 1.454.302.489.724.733 1.268.733.533 0 .953-.248 1.254-.746.258-.412.388-.901.388-1.466zM137.177 17.463h-1.396v-3.51c0-1.08-.421-1.621-1.268-1.621-.414 0-.749.148-1.008.445a1.555 1.555 0 00-.388 1.05v3.635h-1.398v-4.375c0-.538-.016-1.122-.05-1.754h1.227l.065.958H133c.164-.298.407-.543.724-.74.38-.228.803-.344 1.268-.344.585 0 1.073.185 1.461.555.484.454.724 1.131.724 2.03v3.671zM146.581 12.356h-1.538v2.977c0 .757.273 1.135.814 1.135.251 0 .459-.02.623-.064l.036 1.034c-.276.101-.639.152-1.085.152-.552 0-.982-.164-1.292-.491-.312-.328-.467-.88-.467-1.653v-3.09h-.919v-1.02h.919v-1.123l1.369-.403v1.524h1.539v1.022h.001zM153.979 17.464h-1.399V13.98c0-1.098-.421-1.648-1.265-1.648-.648 0-1.091.318-1.333.955a1.648 1.648 0 00-.066.49v3.686h-1.396v-8.94h1.396v3.694h.027c.44-.672 1.071-1.007 1.888-1.007.579 0 1.057.184 1.437.555.474.461.711 1.148.711 2.055v3.644zM161.609 14.11c0 .244-.018.45-.052.617h-4.19c.018.606.218 1.067.606 1.387.355.286.812.429 1.372.429.62 0 1.186-.096 1.695-.29l.219.946c-.596.252-1.298.379-2.11.379-.973 0-1.74-.28-2.294-.839-.558-.559-.834-1.309-.834-2.25 0-.924.258-1.694.776-2.308.542-.655 1.274-.982 2.198-.982.904 0 1.59.327 2.054.982.375.52.56 1.164.56 1.928zm-1.333-.353c.011-.404-.081-.753-.271-1.046-.242-.379-.612-.569-1.112-.569-.456 0-.828.185-1.112.556a2.03 2.03 0 00-.414 1.06h2.909z" fill="#fff"/></svg>