<?xml version="1.0" encoding="utf-8"?><svg width="235" height="48" fill="none" xmlns="http://www.w3.org/2000/svg" viewBox="0 0 235 48"><g filter="url(#hfilter0_d)"><path d="M111.491 20.153c.694-.715 1.522-1.26 2.475-1.671a7.535 7.535 0 013.026-.608h10.041l-.018-4.808h-10.023c-1.611 0-3.142.286-4.575.849a12.74 12.74 0 00-3.855 2.36l-1.014 1.018a13.727 13.727 0 00-2.297 3.816c-.57 1.412-.855 2.94-.855 4.594 0 1.519.303 3.02.9 4.495.596 1.474 1.344 2.761 2.252 3.86.293.394.649.77 1.068 1.118 1.13.875 2.43 1.617 3.899 2.243a11.44 11.44 0 004.477.92h10.023V23.263h-9.444l4.655 4.861v5.345h-5.225a7.558 7.558 0 01-3.027-.626c-.952-.429-1.78-.974-2.474-1.68a8.508 8.508 0 01-1.674-2.458 7.364 7.364 0 01-.623-3.011c0-1.073.205-2.092.623-3.048a8.162 8.162 0 011.665-2.493zm59.417 3.887l-11.42-11.528v25.81h4.842v-13.37l6.578 6.077 6.543-6.113V38.33h4.842V12.512L170.908 24.04zm-38.231-10.983l.017 7.114 8.457 8.48v9.67h4.789v-9.66l8.349-8.473v-7.131l-10.762 10.93-10.85-10.93z" fill="#5C3668"/><path d="M0 23.263l4.718 4.862H0V38.33h17.625v-4.862H4.842v-5.344h9.543v-4.862H4.842v-5.398h12.783v-4.808H0v10.206zm54.032 0l4.718 4.862h-4.718V38.33h17.625v-4.862H58.866v-5.344h9.542v-4.862h-9.542v-5.398h12.782v-4.808H54.032v10.206zm39.986 4.37a8.319 8.319 0 003.24-2.422h-.045c1.069-1.358 1.594-2.904 1.594-4.62 0-1.037-.187-2.02-.579-2.94a7.538 7.538 0 00-1.593-2.413 7.504 7.504 0 00-2.404-1.6 7.362 7.362 0 00-2.928-.59H78.484l-.017 4.763v5.443l4.842 4.862v-.01h4.87v.01h.614l5.18 10.206h5.617l-5.572-10.689zm-.828-5.148a2.568 2.568 0 01-1.887.778h-1.398v-.027H83.3v-5.37h8.003c.739 0 1.37.267 1.887.803.516.528.783 1.171.783 1.922 0 .75-.267 1.376-.783 1.894zm-14.732 15.8l4.842.063V28.125h-4.842v10.16zm-36.096-9.892l-.009.009-17.927-17.963v27.883h4.86V22.494l-.036.01.018-.027L47.222 40.44V13.057h-4.86v15.336zM208.312 31.887l-9.159-9.196-3.436 3.45 9.168 9.196 3.427-3.45zM229.124 11l-9.159-9.196-3.445 3.45 9.159 9.205 3.445-3.459zM201.44 38.786l9.169 9.205 3.436-3.45-9.169-9.204-3.436 3.45zm24.248-24.326l-3.445 3.44 9.169 9.215 3.436-3.45-9.16-9.205z" fill="#E5004F"/><path d="M214.678 22.682l4.54-7.838-10.513 10.546-1.709 1.724 8.857-.008-4.486 7.855 10.504-10.554 1.718-1.716-8.911-.01z" fill="#fff"/><path d="M228.795 31.36l3.427-3.44-5.412-5.435-1.514-1.519-2.661-2.672v-.018l-.383-.384 1.709-1.716 1.718-1.725-5.296-5.317-1.22-1.225-3.445-3.467-3.436 3.44 3.454 3.46-10.512 10.554-3.445-3.468-3.427 3.45 9.96 10.009-1.014 1.019-2.422 2.43 9.988 10.028 3.436-3.494-1.789-1.797-1.665-1.608-.018-.018 10.504-10.555 3.463 3.468zm-21.8-4.245l.988-.992.721-.724 10.504-10.546-4.531 7.838 8.901.009-12.212 12.261 2.421-4.236 2.065-3.61h-8.857zM4.281 1.716c-.623-.59-1.228-.768-1.718-.768-.676 0-1.166.357-1.166.875 0 1.412 3.178 1.395 3.178 3.736 0 1.153-.872 2.002-2.056 2.002-.793 0-1.442-.215-2.057-.68v-1.34c.535.688 1.22 1.073 1.941 1.073.819 0 1.193-.519 1.193-.93 0-1.52-3.178-1.698-3.178-3.718C.418.77 1.299 0 2.643 0c.561 0 1.122.17 1.638.519v1.197zM8.776.099c1.602 0 2.332.947 2.332 2.118 0 1.152-.774 2.064-2.474 2.064H7.548v3.19h-1.06V.1h2.288zM7.548 3.325H8.74c.784 0 1.291-.42 1.291-1.153 0-.536-.294-1.126-1.246-1.126H7.548v2.279zM16.395 0c2.422 0 3.953 1.725 3.953 3.78 0 1.984-1.487 3.78-3.97 3.78-2.395 0-3.917-1.778-3.917-3.78C12.452 1.743 14.019 0 16.395 0zm0 6.586c1.647 0 2.858-1.197 2.858-2.806 0-1.617-1.22-2.806-2.858-2.806-1.637 0-2.848 1.189-2.848 2.806-.009 1.609 1.21 2.806 2.848 2.806zM24.21.099c1.487 0 2.413.786 2.413 2.064 0 .849-.445 1.492-1.228 1.805.667.447 1.077 1.126 1.638 2.038.311.51.498.76.997 1.457h-1.256l-.97-1.51c-.97-1.511-1.415-1.69-1.95-1.69h-.444v3.2h-1.05V.099h1.85zm-.8 3.217h.676c1.13 0 1.442-.572 1.442-1.198 0-.679-.418-1.108-1.442-1.108h-.676v2.306zM34.564 1.046h-2.537v6.417h-1.05V1.046h-2.538V.099h6.134v.947h-.01zM40.404 4.183h-5.572v-.689h5.572v.689zM48.584 1.743c-.908-.527-1.682-.769-2.528-.769-1.682 0-2.928 1.198-2.928 2.815 0 1.654 1.202 2.798 2.973 2.798.828 0 1.736-.295 2.564-.832v1.153c-.721.376-1.505.644-2.653.644-2.75 0-3.961-2.127-3.961-3.673 0-2.243 1.691-3.888 4.023-3.888.757 0 1.514.188 2.52.608v1.144h-.01zM51.745 6.515h3.311v.948h-4.37V.099h1.05v6.416h.009zM62.622 4.567c0 1.805-1.077 2.994-3.258 2.994-1.55 0-3.053-.876-3.053-2.887V.098h1.05v4.353c0 .83.107 1.18.445 1.51.418.42.944.626 1.585.626.81 0 1.388-.26 1.718-.6.373-.375.462-.92.462-1.608V.09h1.05v4.478zM64.893.099h2.127c1.585 0 2.261.947 2.261 1.876 0 .769-.356 1.26-1.122 1.573v.027c1.095.206 1.763.93 1.763 1.921 0 .903-.677 1.967-2.52 1.967h-2.51V.099zm1.05 3.154h.703c1.042 0 1.549-.393 1.549-1.18 0-.553-.311-1.027-1.282-1.027h-.97v2.207zm0 3.262h1.326c1.238 0 1.567-.616 1.567-1.162 0-.67-.516-1.143-1.62-1.143h-1.273v2.305z" fill="#5C3668"/></g><defs><filter id="hfilter0_d" x="-4" y="-.009" width="242.848" height="56" filterUnits="userSpaceOnUse" color-interpolation-filters="sRGB"><feFlood flood-opacity="0" result="BackgroundImageFix"/><feColorMatrix in="SourceAlpha" values="0 0 0 0 0 0 0 0 0 0 0 0 0 0 0 0 0 0 127 0"/><feOffset dy="4"/><feGaussianBlur stdDeviation="2"/><feColorMatrix values="0 0 0 0 0 0 0 0 0 0 0 0 0 0 0 0 0 0 0.25 0"/><feBlend in2="BackgroundImageFix" result="effect1_dropShadow"/><feBlend in="SourceGraphic" in2="effect1_dropShadow" result="shape"/></filter></defs></svg>