<svg width="1184" height="209" viewBox="0 0 1184 209" fill="none" xmlns="http://www.w3.org/2000/svg"><path d="M72.965 205v1h1v-1h-1zm-161.505 0h-1v1h1v-1zm0-203.7v-1h-1v1h1zm161.505 0h1v-1h-1v1zm0 40.74v1h1v-1h-1zm-109.125 0v-1h-1v1h1zm0 39.285h-1v1h1v-1zm85.845 0h1v-1h-1v1zm0 40.74v1h1v-1h-1zm-85.845 0v-1h-1v1h1zm0 42.195h-1v1h1v-1zm109.125 0h1v-1h-1v1zm0 39.74H-88.54v2H72.965v-2zm-160.505 1V1.3h-2V205h2zm-1-202.7H72.965v-2H-88.54v2zm160.505-1v40.74h2V1.3h-2zm1 39.74H-36.16v2H72.965v-2zm-110.125 1v39.285h2V42.04h-2zm1 40.285h85.845v-2H-36.16v2zm84.845-1v40.74h2v-40.74h-2zm1 39.74H-36.16v2h85.845v-2zm-86.845 1v42.195h2v-42.195h-2zm1 43.195H72.965v-2H-36.16v2zm108.125-1V205h2v-40.74h-2zM273.687 205v1h1v-1h-1zm-55.29 0l-.868.496.287.504h.581v-1zm-69.84-122.22l.868-.496-1.868-3.27v3.766h1zm0 122.22v1h1v-1h-1zm-52.38 0h-1v1h1v-1zm0-203.7v-1h-1v1h1zm55.29 0l.868-.496-.288-.504h-.58v1zm69.84 122.22l-.868.496 1.868 3.27v-3.766h-1zm0-122.22v-1h-1v1h1zm52.38 0h1v-1h-1v1zm0 202.7h-55.29v2h55.29v-2zm-54.422.504l-69.84-122.22-1.736.992 69.84 122.22 1.736-.992zM147.557 82.78V205h2V82.78h-2zm1 121.22h-52.38v2h52.38v-2zm-51.38 1V1.3h-2V205h2zm-1-202.7h55.29v-2h-55.29v2zm54.422-.504l69.84 122.22 1.736-.992L152.335.804l-1.736.992zm71.708 121.724V1.3h-2v122.22h2zm-1-121.22h52.38v-2h-52.38v2zm51.38-1V205h2V1.3h-2zM470.248 205v1h1v-1h-1zm-161.505 0h-1v1h1v-1zm0-203.7v-1h-1v1h1zm161.505 0h1v-1h-1v1zm0 40.74v1h1v-1h-1zm-109.125 0v-1h-1v1h1zm0 39.285h-1v1h1v-1zm85.845 0h1v-1h-1v1zm0 40.74v1h1v-1h-1zm-85.845 0v-1h-1v1h1zm0 42.195h-1v1h1v-1zm109.125 0h1v-1h-1v1zm0 39.74H308.743v2h161.505v-2zm-160.505 1V1.3h-2V205h2zm-1-202.7h161.505v-2H308.743v2zm160.505-1v40.74h2V1.3h-2zm1 39.74H361.123v2h109.125v-2zm-110.125 1v39.285h2V42.04h-2zm1 40.285h85.845v-2h-85.845v2zm84.845-1v40.74h2v-40.74h-2zm1 39.74h-85.845v2h85.845v-2zm-86.845 1v42.195h2v-42.195h-2zm1 43.195h109.125v-2H361.123v2zm108.125-1V205h2v-40.74h-2zM493.46 1.3v-1h-1v1h1zm166.452 13.968l-.714.7.007.007.007.008.7-.715zm5.82 107.961l-.854-.52-.004.007-.004.007.862.506zm-25.317 17.751l-.243-.97-1.277.319.651 1.145.869-.494zM676.79 205v1h1.718l-.849-1.494-.869.494zm-56.745 0l-.877.48.285.52h.592v-1zm-33.465-61.11l.877-.48-.285-.52h-.592v1zm-40.74 0v-1h-1v1h1zm0 61.11v1h1v-1h-1zm-52.38 0h-1v1h1v-1zm52.38-162.96v-1h-1v1h1zm0 61.11h-1v1h1v-1zM493.46 2.3h122.22v-2H493.46v2zm122.22 0c20.249 0 34.67 4.632 43.518 13.668l1.429-1.4C651.238 4.98 636.171.3 615.68.3v2zm43.532 13.683C668.248 24.83 672.88 39.25 672.88 59.5h2c0-20.491-4.68-35.558-14.268-44.947l-1.4 1.43zM672.88 59.5v26.19h2V59.5h-2zm0 26.19c0 16.01-2.704 28.315-8.002 37.019l1.708 1.04c5.566-9.144 8.294-21.865 8.294-38.059h-2zm-8.01 37.033c-5.081 8.655-13.273 14.431-24.698 17.287l.486 1.94c11.855-2.964 20.541-9.022 25.936-18.215l-1.724-1.012zm-25.324 18.751l36.375 64.02 1.738-.988-36.375-64.02-1.738.988zM676.79 204h-56.745v2h56.745v-2zm-55.868.52l-33.465-61.11-1.754.96 33.465 61.11 1.754-.96zm-34.342-61.63h-40.74v2h40.74v-2zm-41.74 1V205h2v-61.11h-2zm1 60.11h-52.38v2h52.38v-2zm-51.38 1V1.3h-2V205h2zM622.5 59.5c0-5.974-1.494-10.638-4.658-13.802-3.164-3.164-7.828-4.658-13.802-4.658v2c5.666 0 9.732 1.416 12.388 4.072 2.656 2.656 4.072 6.722 4.072 12.388h2zm-18.46-18.46h-58.2v2h58.2v-2zm-59.2 1v61.11h2V42.04h-2zm1 62.11h58.2v-2h-58.2v2zm58.2 0c5.974 0 10.638-1.494 13.802-4.658 3.164-3.164 4.658-7.828 4.658-13.802h-2c0 5.666-1.416 9.732-4.072 12.388-2.656 2.656-6.722 4.072-12.388 4.072v2zm18.46-18.46V59.5h-2v26.19h2zm255 114.945l.107.994.893-.095v-.899h-1zm-167.034-6.111l.708-.707-.708.707zm.291-179.256l.708.707-.708-.707zM860.04 1.3h1v-1h-1v1zm0 40.74v1h1v-1h-1zM753.243 163.387l-.732.68.025.028.027.025.68-.733zm71.877 2.328l.053.999.947-.05v-.949h-1zm0-42.195h1v-1h-1v1zm-37.83 0h-1v1h1v-1zm0-34.92v-1h-1v1h1zm90.21 0h1v-1h-1v1zm-.106 111.041c-45.367 4.847-87.041 7.269-125.024 7.269v2c38.066 0 79.812-2.428 125.237-7.281l-.213-1.988zM752.37 206.91c-18.879 0-32.537-4.433-41.196-13.093l-1.415 1.414c9.188 9.188 23.467 13.679 42.611 13.679v-2zm-41.196-13.093c-8.66-8.66-13.094-22.318-13.094-41.197h-2c0 19.145 4.491 33.423 13.679 42.611l1.415-1.414zM698.08 152.62V59.5h-2v93.12h2zm0-93.12c0-20.254 4.538-34.678 13.385-43.525l-1.415-1.414c-9.389 9.39-13.97 24.453-13.97 44.939h2zm13.385-43.525C720.508 6.931 735.034 2.3 755.28 2.3v-2c-20.493 0-35.649 4.68-45.23 14.26l1.415 1.415zM755.28 2.3h104.76v-2H755.28v2zm103.76-1v40.74h2V1.3h-2zm1 39.74h-93.12v2h93.12v-2zm-93.12 0c-5.974 0-10.638 1.494-13.802 4.658-3.163 3.164-4.658 7.828-4.658 13.802h2c0-5.666 1.416-9.732 4.073-12.388 2.656-2.656 6.722-4.072 12.387-4.072v-2zM748.46 59.5v93.12h2V59.5h-2zm0 93.12c0 4.66 1.323 8.51 4.051 11.447l1.465-1.36c-2.316-2.495-3.516-5.823-3.516-10.087h-2zm4.103 11.5c2.937 2.727 6.787 4.05 11.447 4.05v-2c-4.264 0-7.591-1.199-10.086-3.516l-1.361 1.466zm11.447 4.05c22.324 0 42.712-.485 61.163-1.456l-.105-1.998c-18.409.969-38.762 1.454-61.058 1.454v2zm62.11-2.455V123.52h-2v42.195h2zm-1-43.195h-37.83v2h37.83v-2zm-36.83 1V88.6h-2v34.92h2zm-1-33.92h90.21v-2h-90.21v2zm89.21-1v112.035h2V88.6h-2zm-4.774-87.3v-1h-1.639l.75 1.458.889-.458zm55.29 0l.9-.437-.274-.563h-.626v1zm48.015 98.94l-.9.437.9 1.853.9-1.853-.9-.437zM1023.05 1.3v-1h-.63l-.27.563.9.437zm55.29 0l.89.458.75-1.458h-1.64v1zm-77.12 149.865l-.89-.458-.11.216v.242h1zm0 53.835v1h1v-1h-1zm-52.379 0h-1v1h1v-1zm0-53.835h1v-.242l-.111-.216-.889.458zM871.726 2.3h55.29v-2h-55.29v2zm54.39-.563l48.015 98.94 1.8-.874L927.916.863l-1.8.874zm49.815 98.94l48.019-98.94-1.8-.874-48.019 98.94 1.8.874zM1023.05 2.3h55.29v-2h-55.29v2zm54.4-1.458l-77.12 149.865 1.78.916 77.12-149.865-1.78-.916zm-77.23 150.323V205h2v-53.835h-2zm1 52.835h-52.379v2h52.379v-2zm-51.379 1v-53.835h-2V205h2zm-.111-54.293L872.615.842l-1.778.916 77.115 149.865 1.778-.916zm314.82-59.197h1v-3.832l-1.87 3.343.87.489zm-40.74 72.75v1h.59l.29-.511-.88-.489zm-40.74 0l-.87.489.29.511h.58v-1zm-40.74-72.75l.88-.489-1.88-3.343v3.832h1zm0 113.49v1h1v-1h-1zm-52.38 0h-1v1h1v-1zm0-203.7v-1h-1v1h1zm55.29 0l.88-.476-.28-.524h-.6v1zm58.2 107.67l-.88.476.88 1.627.88-1.627-.88-.476zm58.2-107.67v-1h-.59l-.29.524.88.476zm55.29 0h1v-1h-1v1zm0 203.7v1h1v-1h-1zm-52.38 0h-1v1h1v-1zm-.87-113.979l-40.74 72.75 1.75.978 40.74-72.75-1.75-.978zm-39.87 72.239h-40.74v2h40.74v-2zm-39.86.511l-40.74-72.75-1.75.978 40.74 72.75 1.75-.978zm-42.62-72.261V205h2V91.51h-2zm1 112.49h-52.38v2h52.38v-2zm-51.38 1V1.3h-2V205h2zm-1-202.7h55.29v-2h-55.29v2zm54.41-.524l58.2 107.67 1.76-.952-58.2-107.67-1.76.952zm59.96 107.67l58.2-107.67-1.76-.952-58.2 107.67 1.76.952zM1261.64 2.3h55.29v-2h-55.29v2zm54.29-1V205h2V1.3h-2zm1 202.7h-52.38v2h52.38v-2zm-51.38 1V91.51h-2V205h2z" fill="#B694C0" fill-opacity=".3"/></svg>