<?xml version="1.0" encoding="utf-8"?><svg viewBox="0 0 235 88" xmlns="http://www.w3.org/2000/svg" xmlns:xlink="http://www.w3.org/1999/xlink"><style>:root>svg{display:none}:root>svg:target{display:block}</style><svg fill="none" viewBox="0 0 180 52" id="appstore_dark" xmlns="http://www.w3.org/2000/svg"><path d="M179 46.004c0 2.771-2.291 5.016-5.126 5.016H6.132C3.3 51.02 1 48.775 1 46.004v-40C1 3.234 3.3.982 6.132.982h167.741c2.836 0 5.126 2.252 5.126 5.022l.001 40z" fill="#000"/><path d="M173.333 1.042c3.087 0 5.599 2.449 5.599 5.458v39c0 3.01-2.512 5.458-5.599 5.458H6.667c-3.087 0-5.599-2.448-5.599-5.458v-39c0-3.01 2.512-5.458 5.599-5.458h166.666zm0-1.042H6.667C3.002 0 0 2.927 0 6.5v39C0 49.073 3.002 52 6.667 52h166.666c3.665 0 6.667-2.927 6.667-6.5v-39c0-3.573-3.002-6.5-6.667-6.5z" fill="#A6A6A6"/><path d="M40.17 25.719c-.038-4.19 3.52-6.228 3.682-6.323-2.015-2.864-5.138-3.255-6.235-3.287-2.623-.269-5.167 1.53-6.503 1.53-1.362 0-3.42-1.503-5.637-1.46-2.853.044-5.523 1.654-6.986 4.155-3.022 5.1-.768 12.595 2.126 16.717 1.448 2.019 3.14 4.273 5.355 4.194 2.166-.087 2.976-1.347 5.59-1.347 2.591 0 3.351 1.347 5.61 1.296 2.325-.036 3.79-2.028 5.186-4.065 1.674-2.314 2.346-4.593 2.372-4.71-.054-.018-4.516-1.678-4.56-6.7zM35.904 13.398c1.165-1.421 1.962-3.354 1.741-5.316-1.687.073-3.796 1.138-5.01 2.527-1.075 1.225-2.035 3.232-1.787 5.12 1.894.137 3.84-.932 5.056-2.331zM71.527 40.955h-3.028l-1.659-5.082h-5.765l-1.58 5.082h-2.948l5.712-17.301h3.528l5.74 17.3zM66.34 33.74l-1.5-4.518c-.158-.461-.456-1.548-.894-3.26h-.054c-.174.737-.456 1.824-.842 3.26l-1.474 4.518h4.764zM86.216 34.564c0 2.121-.588 3.798-1.764 5.03-1.053 1.096-2.361 1.643-3.922 1.643-1.686 0-2.896-.59-3.634-1.77h-.053v6.57H74v-13.45a83.25 83.25 0 00-.105-4.107h2.5l.159 1.977h.053c.948-1.49 2.387-2.233 4.317-2.233 1.51 0 2.77.58 3.778 1.744 1.01 1.165 1.514 2.696 1.514 4.596zm-2.896.101c0-1.214-.28-2.215-.842-3.003-.615-.821-1.44-1.232-2.475-1.232-.701 0-1.339.229-1.908.68a3.142 3.142 0 00-1.119 1.785 3.544 3.544 0 00-.132.845v2.08c0 .907.286 1.673.856 2.298.571.625 1.312.937 2.224.937 1.071 0 1.904-.403 2.5-1.206.598-.805.896-1.866.896-3.184zM100.932 34.564c0 2.121-.588 3.798-1.765 5.03-1.052 1.096-2.36 1.643-3.921 1.643-1.686 0-2.896-.59-3.632-1.77h-.054v6.57h-2.842v-13.45c0-1.334-.036-2.703-.106-4.107h2.5l.159 1.977h.053c.947-1.49 2.386-2.233 4.318-2.233 1.508 0 2.768.58 3.778 1.744 1.007 1.165 1.512 2.696 1.512 4.596zm-2.896.101c0-1.214-.281-2.215-.844-3.003-.614-.821-1.437-1.232-2.473-1.232-.703 0-1.339.229-1.91.68a3.14 3.14 0 00-1.117 1.785c-.086.343-.132.624-.132.845v2.08c0 .907.286 1.673.854 2.298.57.624 1.312.937 2.226.937 1.071 0 1.904-.403 2.5-1.206.598-.805.896-1.866.896-3.184zM117.386 36.104c0 1.471-.524 2.669-1.576 3.593-1.156 1.01-2.766 1.514-4.834 1.514-1.909 0-3.44-.358-4.598-1.077l.658-2.31c1.248.736 2.618 1.105 4.11 1.105 1.07 0 1.904-.237 2.502-.708.596-.47.894-1.102.894-1.89 0-.702-.246-1.293-.738-1.773-.489-.48-1.306-.925-2.448-1.338-3.106-1.13-4.658-2.784-4.658-4.96 0-1.423.544-2.589 1.633-3.496 1.085-.909 2.533-1.363 4.344-1.363 1.615 0 2.956.275 4.027.822l-.711 2.26c-1-.531-2.131-.796-3.396-.796-1 0-1.781.24-2.341.719-.474.427-.711.949-.711 1.566 0 .684.271 1.25.815 1.694.473.41 1.333.855 2.581 1.335 1.527.6 2.648 1.3 3.369 2.104.719.8 1.078 1.803 1.078 2.999zM126.784 30.56h-3.133v6.057c0 1.54.552 2.31 1.659 2.31.508 0 .929-.043 1.262-.13l.079 2.106c-.56.204-1.297.306-2.211.306-1.122 0-2-.334-2.633-1-.631-.669-.948-1.79-.948-3.364v-6.288h-1.867v-2.08h1.867v-2.284l2.792-.821v3.105h3.133v2.083zM140.922 34.615c0 1.917-.563 3.492-1.686 4.723-1.177 1.267-2.74 1.9-4.688 1.9-1.877 0-3.372-.608-4.486-1.822-1.115-1.214-1.672-2.747-1.672-4.594 0-1.933.573-3.517 1.724-4.748 1.148-1.232 2.697-1.848 4.645-1.848 1.877 0 3.388.607 4.528 1.822 1.091 1.18 1.635 2.701 1.635 4.567zm-2.95.09c0-1.15-.252-2.137-.762-2.96-.596-.996-1.448-1.493-2.552-1.493-1.143 0-2.011.498-2.607 1.493-.511.824-.763 1.826-.763 3.012 0 1.15.252 2.137.763 2.959.615.995 1.473 1.492 2.581 1.492 1.086 0 1.938-.507 2.552-1.518.524-.839.788-1.836.788-2.985zM150.162 30.917a5.07 5.07 0 00-.896-.077c-1 0-1.774.368-2.318 1.105-.473.65-.71 1.472-.71 2.464v6.546h-2.842l.027-8.547c0-1.438-.036-2.747-.107-3.927h2.476l.104 2.387h.079c.3-.82.773-1.48 1.421-1.976.634-.446 1.318-.668 2.055-.668.263 0 .5.018.711.05v2.643zM162.875 34.127c0 .497-.033.916-.104 1.258h-8.528c.033 1.232.445 2.174 1.237 2.824.719.581 1.648.873 2.79.873 1.262 0 2.414-.197 3.45-.59l.446 1.924c-1.211.514-2.64.77-4.29.77-1.984 0-3.541-.569-4.674-1.706-1.131-1.138-1.698-2.665-1.698-4.582 0-1.88.527-3.447 1.582-4.697 1.104-1.333 2.596-2 4.473-2 1.844 0 3.24.667 4.188 2 .751 1.06 1.128 2.37 1.128 3.926zm-2.711-.719c.019-.821-.166-1.53-.552-2.13-.492-.771-1.248-1.156-2.265-1.156-.929 0-1.685.376-2.263 1.13-.473.6-.754 1.318-.841 2.155h5.921v.002zM65.4 13.013c0 1.53-.47 2.682-1.41 3.455-.871.714-2.108 1.071-3.711 1.071a17.64 17.64 0 01-2.044-.101v-8.36a15.46 15.46 0 012.407-.177c1.526 0 2.677.324 3.453.971.87.732 1.305 1.778 1.305 3.14zm-1.473.037c0-.992-.27-1.752-.808-2.282-.539-.53-1.325-.795-2.361-.795-.44 0-.815.029-1.126.089v6.355c.172.026.487.038.944.038 1.07 0 1.895-.29 2.476-.87.581-.58.875-1.424.875-2.535zM73.212 14.35c0 .942-.276 1.714-.828 2.32-.579.623-1.345.933-2.302.933-.923 0-1.658-.297-2.206-.896-.547-.596-.82-1.349-.82-2.256 0-.95.282-1.728.847-2.333.565-.604 1.325-.907 2.282-.907.923 0 1.665.298 2.226.894.533.58.801 1.329.801 2.244zm-1.45.043c0-.565-.124-1.05-.374-1.454-.293-.49-.71-.733-1.253-.733-.562 0-.988.244-1.282.733-.25.404-.374.897-.374 1.48 0 .565.125 1.05.374 1.454.303.489.725.733 1.269.733.533 0 .951-.248 1.253-.746.258-.412.388-.901.388-1.466zM83.687 11.336l-1.967 6.129h-1.28l-.815-2.661a19.484 19.484 0 01-.505-1.98h-.025c-.122.673-.29 1.332-.506 1.98l-.865 2.661H76.43l-1.849-6.129h1.436l.71 2.914c.173.689.314 1.345.427 1.967h.026a21.36 21.36 0 01.518-1.954l.892-2.925h1.14l.854 2.863c.206.698.374 1.37.504 2.017h.038c.095-.63.238-1.302.427-2.018l.763-2.862h1.372v-.002zM90.93 17.463h-1.397v-3.51c0-1.08-.42-1.621-1.266-1.621-.415 0-.75.148-1.01.445a1.559 1.559 0 00-.388 1.05v3.635h-1.397v-4.375c0-.538-.017-1.122-.05-1.754h1.227l.066.958h.038a1.99 1.99 0 01.724-.74 2.407 2.407 0 011.267-.344c.587 0 1.075.185 1.463.555.482.454.724 1.131.724 2.03v3.671zM94.784 17.464h-1.396v-8.94h1.396v8.94zM103.011 14.35c0 .942-.276 1.714-.828 2.32-.579.623-1.347.933-2.303.933-.924 0-1.658-.297-2.205-.896-.547-.596-.82-1.349-.82-2.256 0-.95.281-1.728.847-2.333.565-.604 1.325-.907 2.281-.907.924 0 1.664.298 2.227.894.533.58.801 1.329.801 2.244zm-1.451.043c0-.565-.125-1.05-.374-1.454-.292-.49-.711-.733-1.252-.733-.563 0-.99.244-1.282.733-.25.404-.374.897-.374 1.48 0 .565.125 1.05.374 1.454.303.489.724.733 1.268.733.534 0 .951-.248 1.252-.746.26-.412.388-.901.388-1.466zM109.773 17.464h-1.254l-.104-.706h-.039c-.429.563-1.041.845-1.836.845-.593 0-1.073-.186-1.435-.555-.328-.335-.492-.753-.492-1.248 0-.749.32-1.32.964-1.715.643-.395 1.547-.589 2.711-.58v-.114c0-.807-.435-1.21-1.305-1.21-.62 0-1.167.152-1.639.454l-.284-.895c.584-.352 1.305-.53 2.156-.53 1.643 0 2.467.846 2.467 2.536v2.257c0 .612.03 1.1.09 1.461zm-1.45-2.106v-.945c-1.542-.026-2.312.386-2.312 1.235 0 .32.088.559.268.719.18.16.409.24.682.24.307 0 .594-.096.855-.284a1.157 1.157 0 00.507-.965zM117.714 17.464h-1.24l-.066-.984h-.038c-.396.749-1.071 1.123-2.019 1.123-.757 0-1.388-.29-1.888-.87-.5-.58-.749-1.332-.749-2.256 0-.992.27-1.796.814-2.41.527-.571 1.172-.857 1.94-.857.844 0 1.435.277 1.771.832h.027V8.524h1.398v7.29c0 .596.016 1.146.05 1.65zm-1.448-2.584v-1.022c0-.177-.014-.32-.039-.43a1.548 1.548 0 00-.505-.825 1.396 1.396 0 00-.935-.334c-.521 0-.929.202-1.229.606-.298.404-.448.92-.448 1.551 0 .606.142 1.097.429 1.476a1.45 1.45 0 001.221.604c.459 0 .826-.168 1.104-.504.27-.311.402-.685.402-1.122zM129.664 14.35c0 .942-.276 1.714-.828 2.32-.578.623-1.344.933-2.302.933-.922 0-1.656-.297-2.206-.896-.546-.596-.82-1.349-.82-2.256 0-.95.282-1.728.847-2.333.565-.604 1.325-.907 2.284-.907.921 0 1.664.298 2.224.894.533.58.801 1.329.801 2.244zm-1.448.043c0-.565-.125-1.05-.374-1.454-.295-.49-.711-.733-1.255-.733-.56 0-.987.244-1.281.733-.251.404-.375.897-.375 1.48 0 .565.125 1.05.375 1.454.302.489.724.733 1.268.733.533 0 .953-.248 1.254-.746.258-.412.388-.901.388-1.466zM137.177 17.463h-1.396v-3.51c0-1.08-.421-1.621-1.268-1.621-.414 0-.749.148-1.008.445a1.555 1.555 0 00-.388 1.05v3.635h-1.398v-4.375c0-.538-.016-1.122-.05-1.754h1.227l.065.958H133c.164-.298.407-.543.724-.74.38-.228.803-.344 1.268-.344.585 0 1.073.185 1.461.555.484.454.724 1.131.724 2.03v3.671zM146.581 12.356h-1.538v2.977c0 .757.273 1.135.814 1.135.251 0 .459-.02.623-.064l.036 1.034c-.276.101-.639.152-1.085.152-.552 0-.982-.164-1.292-.491-.312-.328-.467-.88-.467-1.653v-3.09h-.919v-1.02h.919v-1.123l1.369-.403v1.524h1.539v1.022h.001zM153.979 17.464h-1.399V13.98c0-1.098-.421-1.648-1.265-1.648-.648 0-1.091.318-1.333.955a1.648 1.648 0 00-.066.49v3.686h-1.396v-8.94h1.396v3.694h.027c.44-.672 1.071-1.007 1.888-1.007.579 0 1.057.184 1.437.555.474.461.711 1.148.711 2.055v3.644zM161.609 14.11c0 .244-.018.45-.052.617h-4.19c.018.606.218 1.067.606 1.387.355.286.812.429 1.372.429.62 0 1.186-.096 1.695-.29l.219.946c-.596.252-1.298.379-2.11.379-.973 0-1.74-.28-2.294-.839-.558-.559-.834-1.309-.834-2.25 0-.924.258-1.694.776-2.308.542-.655 1.274-.982 2.198-.982.904 0 1.59.327 2.054.982.375.52.56 1.164.56 1.928zm-1.333-.353c.011-.404-.081-.753-.271-1.046-.242-.379-.612-.569-1.112-.569-.456 0-.828.185-1.112.556a2.03 2.03 0 00-.414 1.06h2.909z" fill="#fff"/></svg><svg fill="none" viewBox="0 0 180 52" id="appstore_light" xmlns="http://www.w3.org/2000/svg"><path d="M179 46.004c0 2.771-2.291 5.016-5.126 5.016H6.132C3.3 51.02 1 48.775 1 46.004v-40C1 3.234 3.3.982 6.132.982h167.741c2.836 0 5.126 2.252 5.126 5.022l.001 40z" fill="#fff"/><path d="M173.333 1.042c3.087 0 5.599 2.449 5.599 5.458v39c0 3.01-2.512 5.458-5.599 5.458H6.667c-3.087 0-5.599-2.448-5.599-5.458v-39c0-3.01 2.512-5.458 5.599-5.458h166.666zm0-1.042H6.667C3.002 0 0 2.927 0 6.5v39C0 49.073 3.002 52 6.667 52h166.666c3.665 0 6.667-2.927 6.667-6.5v-39c0-3.573-3.002-6.5-6.667-6.5z" fill="#A6A6A6"/><path d="M40.17 25.719c-.038-4.19 3.52-6.228 3.682-6.323-2.015-2.864-5.138-3.255-6.235-3.287-2.623-.269-5.167 1.53-6.503 1.53-1.362 0-3.42-1.503-5.637-1.46-2.853.044-5.523 1.654-6.986 4.155-3.022 5.1-.768 12.595 2.126 16.717 1.448 2.019 3.14 4.273 5.355 4.194 2.166-.087 2.976-1.347 5.59-1.347 2.591 0 3.351 1.347 5.61 1.296 2.325-.036 3.79-2.028 5.186-4.065 1.674-2.314 2.346-4.593 2.372-4.71-.054-.018-4.516-1.678-4.56-6.7zM35.904 13.398c1.165-1.421 1.962-3.354 1.741-5.316-1.687.073-3.796 1.138-5.01 2.527-1.075 1.225-2.035 3.232-1.787 5.12 1.894.137 3.84-.932 5.056-2.331zM71.527 40.955h-3.028l-1.659-5.082h-5.765l-1.58 5.082h-2.948l5.712-17.301h3.528l5.74 17.3zM66.34 33.74l-1.5-4.518c-.158-.461-.456-1.548-.894-3.26h-.054c-.174.737-.456 1.824-.842 3.26l-1.474 4.518h4.764zM86.216 34.564c0 2.121-.588 3.798-1.764 5.03-1.053 1.096-2.361 1.643-3.922 1.643-1.686 0-2.896-.59-3.634-1.77h-.053v6.57H74v-13.45a83.25 83.25 0 00-.105-4.107h2.5l.159 1.977h.053c.948-1.49 2.387-2.233 4.317-2.233 1.51 0 2.77.58 3.778 1.744 1.01 1.165 1.514 2.696 1.514 4.596zm-2.896.101c0-1.214-.28-2.215-.842-3.003-.615-.821-1.44-1.232-2.475-1.232-.701 0-1.339.229-1.908.68a3.142 3.142 0 00-1.119 1.785 3.544 3.544 0 00-.132.845v2.08c0 .907.286 1.673.856 2.298.571.625 1.312.937 2.224.937 1.071 0 1.904-.403 2.5-1.206.598-.805.896-1.866.896-3.184zM100.932 34.564c0 2.121-.588 3.798-1.765 5.03-1.052 1.096-2.36 1.643-3.921 1.643-1.686 0-2.896-.59-3.632-1.77h-.054v6.57h-2.842v-13.45c0-1.334-.036-2.703-.106-4.107h2.5l.159 1.977h.053c.947-1.49 2.386-2.233 4.318-2.233 1.508 0 2.768.58 3.778 1.744 1.007 1.165 1.512 2.696 1.512 4.596zm-2.896.101c0-1.214-.281-2.215-.844-3.003-.614-.821-1.437-1.232-2.473-1.232-.703 0-1.339.229-1.91.68a3.14 3.14 0 00-1.117 1.785c-.086.343-.132.624-.132.845v2.08c0 .907.286 1.673.854 2.298.57.624 1.312.937 2.226.937 1.071 0 1.904-.403 2.5-1.206.598-.805.896-1.866.896-3.184zM117.386 36.104c0 1.471-.524 2.669-1.576 3.593-1.156 1.01-2.766 1.514-4.834 1.514-1.909 0-3.44-.358-4.598-1.077l.658-2.31c1.248.736 2.618 1.105 4.11 1.105 1.07 0 1.904-.237 2.502-.708.596-.47.894-1.102.894-1.89 0-.702-.246-1.293-.738-1.773-.489-.48-1.306-.925-2.448-1.338-3.106-1.13-4.658-2.784-4.658-4.96 0-1.423.544-2.589 1.633-3.496 1.085-.909 2.533-1.363 4.344-1.363 1.615 0 2.956.275 4.027.822l-.711 2.26c-1-.531-2.131-.796-3.396-.796-1 0-1.781.24-2.341.719-.474.427-.711.949-.711 1.566 0 .684.271 1.25.815 1.694.473.41 1.333.855 2.581 1.335 1.527.6 2.648 1.3 3.369 2.104.719.8 1.078 1.803 1.078 2.999zM126.784 30.56h-3.133v6.057c0 1.54.552 2.31 1.659 2.31.508 0 .929-.043 1.262-.13l.079 2.106c-.56.204-1.297.306-2.211.306-1.122 0-2-.334-2.633-1-.631-.669-.948-1.79-.948-3.364v-6.288h-1.867v-2.08h1.867v-2.284l2.792-.821v3.105h3.133v2.083zM140.922 34.615c0 1.917-.563 3.492-1.686 4.723-1.177 1.267-2.74 1.9-4.688 1.9-1.877 0-3.372-.608-4.486-1.822-1.115-1.214-1.672-2.747-1.672-4.594 0-1.933.573-3.517 1.724-4.748 1.148-1.232 2.697-1.848 4.645-1.848 1.877 0 3.388.607 4.528 1.822 1.091 1.18 1.635 2.701 1.635 4.567zm-2.95.09c0-1.15-.252-2.137-.762-2.96-.596-.996-1.448-1.493-2.552-1.493-1.143 0-2.011.498-2.607 1.493-.511.824-.763 1.826-.763 3.012 0 1.15.252 2.137.763 2.959.615.995 1.473 1.492 2.581 1.492 1.086 0 1.938-.507 2.552-1.518.524-.839.788-1.836.788-2.985zM150.162 30.917a5.07 5.07 0 00-.896-.077c-1 0-1.774.368-2.318 1.105-.473.65-.71 1.472-.71 2.464v6.546h-2.842l.027-8.547c0-1.438-.036-2.747-.107-3.927h2.476l.104 2.387h.079c.3-.82.773-1.48 1.421-1.976.634-.446 1.318-.668 2.055-.668.263 0 .5.018.711.05v2.643zM162.875 34.127c0 .497-.033.916-.104 1.258h-8.528c.033 1.232.445 2.174 1.237 2.824.719.581 1.648.873 2.79.873 1.262 0 2.414-.197 3.45-.59l.446 1.924c-1.211.514-2.64.77-4.29.77-1.984 0-3.541-.569-4.674-1.706-1.131-1.138-1.698-2.665-1.698-4.582 0-1.88.527-3.447 1.582-4.697 1.104-1.333 2.596-2 4.473-2 1.844 0 3.24.667 4.188 2 .751 1.06 1.128 2.37 1.128 3.926zm-2.711-.719c.019-.821-.166-1.53-.552-2.13-.492-.771-1.248-1.156-2.265-1.156-.929 0-1.685.376-2.263 1.13-.473.6-.754 1.318-.841 2.155h5.921v.002zM65.4 13.013c0 1.53-.47 2.682-1.41 3.455-.871.714-2.108 1.071-3.711 1.071a17.64 17.64 0 01-2.044-.101v-8.36a15.46 15.46 0 012.407-.177c1.526 0 2.677.324 3.453.971.87.732 1.305 1.778 1.305 3.14zm-1.473.037c0-.992-.27-1.752-.808-2.282-.539-.53-1.325-.795-2.361-.795-.44 0-.815.029-1.126.089v6.355c.172.026.487.038.944.038 1.07 0 1.895-.29 2.476-.87.581-.58.875-1.424.875-2.535zM73.212 14.35c0 .942-.276 1.714-.828 2.32-.579.623-1.345.933-2.302.933-.923 0-1.658-.297-2.206-.896-.547-.596-.82-1.349-.82-2.256 0-.95.282-1.728.847-2.333.565-.604 1.325-.907 2.282-.907.923 0 1.665.298 2.226.894.533.58.801 1.329.801 2.244zm-1.45.043c0-.565-.124-1.05-.374-1.454-.293-.49-.71-.733-1.253-.733-.562 0-.988.244-1.282.733-.25.404-.374.897-.374 1.48 0 .565.125 1.05.374 1.454.303.489.725.733 1.269.733.533 0 .951-.248 1.253-.746.258-.412.388-.901.388-1.466zM83.687 11.336l-1.967 6.129h-1.28l-.815-2.661a19.484 19.484 0 01-.505-1.98h-.025c-.122.673-.29 1.332-.506 1.98l-.865 2.661H76.43l-1.849-6.129h1.436l.71 2.914c.173.689.314 1.345.427 1.967h.026a21.36 21.36 0 01.518-1.954l.892-2.925h1.14l.854 2.863c.206.698.374 1.37.504 2.017h.038c.095-.63.238-1.302.427-2.018l.763-2.862h1.372v-.002zM90.93 17.463h-1.397v-3.51c0-1.08-.42-1.621-1.266-1.621-.415 0-.75.148-1.01.445a1.559 1.559 0 00-.388 1.05v3.635h-1.397v-4.375c0-.538-.017-1.122-.05-1.754h1.227l.066.958h.038a1.99 1.99 0 01.724-.74 2.407 2.407 0 011.267-.344c.587 0 1.075.185 1.463.555.482.454.724 1.131.724 2.03v3.671zM94.784 17.464h-1.396v-8.94h1.396v8.94zM103.011 14.35c0 .942-.276 1.714-.828 2.32-.579.623-1.347.933-2.303.933-.924 0-1.658-.297-2.205-.896-.547-.596-.82-1.349-.82-2.256 0-.95.281-1.728.847-2.333.565-.604 1.325-.907 2.281-.907.924 0 1.664.298 2.227.894.533.58.801 1.329.801 2.244zm-1.451.043c0-.565-.125-1.05-.374-1.454-.292-.49-.711-.733-1.252-.733-.563 0-.99.244-1.282.733-.25.404-.374.897-.374 1.48 0 .565.125 1.05.374 1.454.303.489.724.733 1.268.733.534 0 .951-.248 1.252-.746.26-.412.388-.901.388-1.466zM109.773 17.464h-1.254l-.104-.706h-.039c-.429.563-1.041.845-1.836.845-.593 0-1.073-.186-1.435-.555-.328-.335-.492-.753-.492-1.248 0-.749.32-1.32.964-1.715.643-.395 1.547-.589 2.711-.58v-.114c0-.807-.435-1.21-1.305-1.21-.62 0-1.167.152-1.639.454l-.284-.895c.584-.352 1.305-.53 2.156-.53 1.643 0 2.467.846 2.467 2.536v2.257c0 .612.03 1.1.09 1.461zm-1.45-2.106v-.945c-1.542-.026-2.312.386-2.312 1.235 0 .32.088.559.268.719.18.16.409.24.682.24.307 0 .594-.096.855-.284a1.157 1.157 0 00.507-.965zM117.714 17.464h-1.24l-.066-.984h-.038c-.396.749-1.071 1.123-2.019 1.123-.757 0-1.388-.29-1.888-.87-.5-.58-.749-1.332-.749-2.256 0-.992.27-1.796.814-2.41.527-.571 1.172-.857 1.94-.857.844 0 1.435.277 1.771.832h.027V8.524h1.398v7.29c0 .596.016 1.146.05 1.65zm-1.448-2.584v-1.022c0-.177-.014-.32-.039-.43a1.548 1.548 0 00-.505-.825 1.396 1.396 0 00-.935-.334c-.521 0-.929.202-1.229.606-.298.404-.448.92-.448 1.551 0 .606.142 1.097.429 1.476a1.45 1.45 0 001.221.604c.459 0 .826-.168 1.104-.504.27-.311.402-.685.402-1.122zM129.664 14.35c0 .942-.276 1.714-.828 2.32-.578.623-1.344.933-2.302.933-.922 0-1.656-.297-2.206-.896-.546-.596-.82-1.349-.82-2.256 0-.95.282-1.728.847-2.333.565-.604 1.325-.907 2.284-.907.921 0 1.664.298 2.224.894.533.58.801 1.329.801 2.244zm-1.448.043c0-.565-.125-1.05-.374-1.454-.295-.49-.711-.733-1.255-.733-.56 0-.987.244-1.281.733-.251.404-.375.897-.375 1.48 0 .565.125 1.05.375 1.454.302.489.724.733 1.268.733.533 0 .953-.248 1.254-.746.258-.412.388-.901.388-1.466zM137.177 17.463h-1.396v-3.51c0-1.08-.421-1.621-1.268-1.621-.414 0-.749.148-1.008.445a1.555 1.555 0 00-.388 1.05v3.635h-1.398v-4.375c0-.538-.016-1.122-.05-1.754h1.227l.065.958H133c.164-.298.407-.543.724-.74.38-.228.803-.344 1.268-.344.585 0 1.073.185 1.461.555.484.454.724 1.131.724 2.03v3.671zM146.581 12.356h-1.538v2.977c0 .757.273 1.135.814 1.135.251 0 .459-.02.623-.064l.036 1.034c-.276.101-.639.152-1.085.152-.552 0-.982-.164-1.292-.491-.312-.328-.467-.88-.467-1.653v-3.09h-.919v-1.02h.919v-1.123l1.369-.403v1.524h1.539v1.022h.001zM153.979 17.464h-1.399V13.98c0-1.098-.421-1.648-1.265-1.648-.648 0-1.091.318-1.333.955a1.648 1.648 0 00-.066.49v3.686h-1.396v-8.94h1.396v3.694h.027c.44-.672 1.071-1.007 1.888-1.007.579 0 1.057.184 1.437.555.474.461.711 1.148.711 2.055v3.644zM161.609 14.11c0 .244-.018.45-.052.617h-4.19c.018.606.218 1.067.606 1.387.355.286.812.429 1.372.429.62 0 1.186-.096 1.695-.29l.219.946c-.596.252-1.298.379-2.11.379-.973 0-1.74-.28-2.294-.839-.558-.559-.834-1.309-.834-2.25 0-.924.258-1.694.776-2.308.542-.655 1.274-.982 2.198-.982.904 0 1.59.327 2.054.982.375.52.56 1.164.56 1.928zm-1.333-.353c.011-.404-.081-.753-.271-1.046-.242-.379-.612-.569-1.112-.569-.456 0-.828.185-1.112.556a2.03 2.03 0 00-.414 1.06h2.909z" fill="#000"/></svg><svg fill="none" viewBox="0 0 32 32" id="arrow-down" xmlns="http://www.w3.org/2000/svg"><path fill-rule="evenodd" clip-rule="evenodd" d="M16 2a1 1 0 00-1 1v23.586l-6.292-6.294a1 1 0 10-1.416 1.416l8 8a1 1 0 001.416 0l8-8a1.001 1.001 0 10-1.416-1.416L17 26.586V3a1 1 0 00-1-1z" fill="#fff"/></svg><svg fill="none" viewBox="0 0 32 32" id="arrow-left" xmlns="http://www.w3.org/2000/svg"><path fill-rule="evenodd" clip-rule="evenodd" d="M30 16a1 1 0 00-1-1H5.414l6.294-6.292a1 1 0 10-1.416-1.416l-8 8a1 1 0 000 1.416l8 8a1.001 1.001 0 101.416-1.416L5.414 17H29a1 1 0 001-1z" fill="#fff"/></svg><svg fill="none" viewBox="0 0 32 32" id="arrow-right" xmlns="http://www.w3.org/2000/svg"><path fill-rule="evenodd" clip-rule="evenodd" d="M2 16a1 1 0 011-1h23.586l-6.294-6.292a1 1 0 111.416-1.416l8 8a1 1 0 010 1.416l-8 8a1.001 1.001 0 11-1.416-1.416L26.586 17H3a1 1 0 01-1-1z" fill="#fff"/></svg><svg fill="none" viewBox="0 0 32 32" id="arrow-up" xmlns="http://www.w3.org/2000/svg"><path fill-rule="evenodd" clip-rule="evenodd" d="M16 30a1 1 0 01-1-1V5.414l-6.292 6.294a1 1 0 11-1.416-1.416l8-8a1 1 0 011.416 0l8 8a1.001 1.001 0 11-1.416 1.416L17 5.414V29a1 1 0 01-1 1z" fill="#fff"/></svg><svg fill="none" viewBox="0 0 32 32" id="cross" xmlns="http://www.w3.org/2000/svg"><path fill-rule="evenodd" clip-rule="evenodd" d="M14.232 16l-9.116 9.116 1.768 1.768L16 17.768l9.116 9.116 1.768-1.768L17.768 16l9.116-9.116-1.768-1.768L16 14.232 6.884 5.116 5.116 6.884 14.232 16z" fill="#fff"/></svg><svg fill="none" viewBox="0 0 235 48" id="energym-logo" xmlns="http://www.w3.org/2000/svg"><g filter="url(#hfilter0_d)"><path d="M111.491 20.153c.694-.715 1.522-1.26 2.475-1.671a7.535 7.535 0 013.026-.608h10.041l-.018-4.808h-10.023c-1.611 0-3.142.286-4.575.849a12.74 12.74 0 00-3.855 2.36l-1.014 1.018a13.727 13.727 0 00-2.297 3.816c-.57 1.412-.855 2.94-.855 4.594 0 1.519.303 3.02.9 4.495.596 1.474 1.344 2.761 2.252 3.86.293.394.649.77 1.068 1.118 1.13.875 2.43 1.617 3.899 2.243a11.44 11.44 0 004.477.92h10.023V23.263h-9.444l4.655 4.861v5.345h-5.225a7.558 7.558 0 01-3.027-.626c-.952-.429-1.78-.974-2.474-1.68a8.508 8.508 0 01-1.674-2.458 7.364 7.364 0 01-.623-3.011c0-1.073.205-2.092.623-3.048a8.162 8.162 0 011.665-2.493zm59.417 3.887l-11.42-11.528v25.81h4.842v-13.37l6.578 6.077 6.543-6.113V38.33h4.842V12.512L170.908 24.04zm-38.231-10.983l.017 7.114 8.457 8.48v9.67h4.789v-9.66l8.349-8.473v-7.131l-10.762 10.93-10.85-10.93z" fill="#5C3668"/><path d="M0 23.263l4.718 4.862H0V38.33h17.625v-4.862H4.842v-5.344h9.543v-4.862H4.842v-5.398h12.783v-4.808H0v10.206zm54.032 0l4.718 4.862h-4.718V38.33h17.625v-4.862H58.866v-5.344h9.542v-4.862h-9.542v-5.398h12.782v-4.808H54.032v10.206zm39.986 4.37a8.319 8.319 0 003.24-2.422h-.045c1.069-1.358 1.594-2.904 1.594-4.62 0-1.037-.187-2.02-.579-2.94a7.538 7.538 0 00-1.593-2.413 7.504 7.504 0 00-2.404-1.6 7.362 7.362 0 00-2.928-.59H78.484l-.017 4.763v5.443l4.842 4.862v-.01h4.87v.01h.614l5.18 10.206h5.617l-5.572-10.689zm-.828-5.148a2.568 2.568 0 01-1.887.778h-1.398v-.027H83.3v-5.37h8.003c.739 0 1.37.267 1.887.803.516.528.783 1.171.783 1.922 0 .75-.267 1.376-.783 1.894zm-14.732 15.8l4.842.063V28.125h-4.842v10.16zm-36.096-9.892l-.009.009-17.927-17.963v27.883h4.86V22.494l-.036.01.018-.027L47.222 40.44V13.057h-4.86v15.336zM208.312 31.887l-9.159-9.196-3.436 3.45 9.168 9.196 3.427-3.45zM229.124 11l-9.159-9.196-3.445 3.45 9.159 9.205 3.445-3.459zM201.44 38.786l9.169 9.205 3.436-3.45-9.169-9.204-3.436 3.45zm24.248-24.326l-3.445 3.44 9.169 9.215 3.436-3.45-9.16-9.205z" fill="#E5004F"/><path d="M214.678 22.682l4.54-7.838-10.513 10.546-1.709 1.724 8.857-.008-4.486 7.855 10.504-10.554 1.718-1.716-8.911-.01z" fill="#fff"/><path d="M228.795 31.36l3.427-3.44-5.412-5.435-1.514-1.519-2.661-2.672v-.018l-.383-.384 1.709-1.716 1.718-1.725-5.296-5.317-1.22-1.225-3.445-3.467-3.436 3.44 3.454 3.46-10.512 10.554-3.445-3.468-3.427 3.45 9.96 10.009-1.014 1.019-2.422 2.43 9.988 10.028 3.436-3.494-1.789-1.797-1.665-1.608-.018-.018 10.504-10.555 3.463 3.468zm-21.8-4.245l.988-.992.721-.724 10.504-10.546-4.531 7.838 8.901.009-12.212 12.261 2.421-4.236 2.065-3.61h-8.857zM4.281 1.716c-.623-.59-1.228-.768-1.718-.768-.676 0-1.166.357-1.166.875 0 1.412 3.178 1.395 3.178 3.736 0 1.153-.872 2.002-2.056 2.002-.793 0-1.442-.215-2.057-.68v-1.34c.535.688 1.22 1.073 1.941 1.073.819 0 1.193-.519 1.193-.93 0-1.52-3.178-1.698-3.178-3.718C.418.77 1.299 0 2.643 0c.561 0 1.122.17 1.638.519v1.197zM8.776.099c1.602 0 2.332.947 2.332 2.118 0 1.152-.774 2.064-2.474 2.064H7.548v3.19h-1.06V.1h2.288zM7.548 3.325H8.74c.784 0 1.291-.42 1.291-1.153 0-.536-.294-1.126-1.246-1.126H7.548v2.279zM16.395 0c2.422 0 3.953 1.725 3.953 3.78 0 1.984-1.487 3.78-3.97 3.78-2.395 0-3.917-1.778-3.917-3.78C12.452 1.743 14.019 0 16.395 0zm0 6.586c1.647 0 2.858-1.197 2.858-2.806 0-1.617-1.22-2.806-2.858-2.806-1.637 0-2.848 1.189-2.848 2.806-.009 1.609 1.21 2.806 2.848 2.806zM24.21.099c1.487 0 2.413.786 2.413 2.064 0 .849-.445 1.492-1.228 1.805.667.447 1.077 1.126 1.638 2.038.311.51.498.76.997 1.457h-1.256l-.97-1.51c-.97-1.511-1.415-1.69-1.95-1.69h-.444v3.2h-1.05V.099h1.85zm-.8 3.217h.676c1.13 0 1.442-.572 1.442-1.198 0-.679-.418-1.108-1.442-1.108h-.676v2.306zM34.564 1.046h-2.537v6.417h-1.05V1.046h-2.538V.099h6.134v.947h-.01zM40.404 4.183h-5.572v-.689h5.572v.689zM48.584 1.743c-.908-.527-1.682-.769-2.528-.769-1.682 0-2.928 1.198-2.928 2.815 0 1.654 1.202 2.798 2.973 2.798.828 0 1.736-.295 2.564-.832v1.153c-.721.376-1.505.644-2.653.644-2.75 0-3.961-2.127-3.961-3.673 0-2.243 1.691-3.888 4.023-3.888.757 0 1.514.188 2.52.608v1.144h-.01zM51.745 6.515h3.311v.948h-4.37V.099h1.05v6.416h.009zM62.622 4.567c0 1.805-1.077 2.994-3.258 2.994-1.55 0-3.053-.876-3.053-2.887V.098h1.05v4.353c0 .83.107 1.18.445 1.51.418.42.944.626 1.585.626.81 0 1.388-.26 1.718-.6.373-.375.462-.92.462-1.608V.09h1.05v4.478zM64.893.099h2.127c1.585 0 2.261.947 2.261 1.876 0 .769-.356 1.26-1.122 1.573v.027c1.095.206 1.763.93 1.763 1.921 0 .903-.677 1.967-2.52 1.967h-2.51V.099zm1.05 3.154h.703c1.042 0 1.549-.393 1.549-1.18 0-.553-.311-1.027-1.282-1.027h-.97v2.207zm0 3.262h1.326c1.238 0 1.567-.616 1.567-1.162 0-.67-.516-1.143-1.62-1.143h-1.273v2.305z" fill="#5C3668"/></g><defs><filter id="hfilter0_d" x="-4" y="-.009" width="242.848" height="56" filterUnits="userSpaceOnUse" color-interpolation-filters="sRGB"><feFlood flood-opacity="0" result="BackgroundImageFix"/><feColorMatrix in="SourceAlpha" values="0 0 0 0 0 0 0 0 0 0 0 0 0 0 0 0 0 0 127 0"/><feOffset dy="4"/><feGaussianBlur stdDeviation="2"/><feColorMatrix values="0 0 0 0 0 0 0 0 0 0 0 0 0 0 0 0 0 0 0.25 0"/><feBlend in2="BackgroundImageFix" result="effect1_dropShadow"/><feBlend in="SourceGraphic" in2="effect1_dropShadow" result="shape"/></filter></defs></svg><svg fill="none" viewBox="0 0 32 32" id="facebook_desk" xmlns="http://www.w3.org/2000/svg"><path d="M5.843 0A5.83 5.83 0 000 5.843v20.314A5.83 5.83 0 005.843 32h11.01V19.49h-3.308v-4.504h3.308v-3.848c0-3.023 1.955-5.799 6.457-5.799 1.823 0 3.171.175 3.171.175l-.106 4.206S25 9.707 23.5 9.707c-1.624 0-1.884.748-1.884 1.99v3.289h4.888l-.213 4.504h-4.675V32h4.541A5.83 5.83 0 0032 26.157V5.843A5.83 5.83 0 0026.157 0H5.843z" fill="#B694C0"/></svg><svg fill="none" viewBox="0 0 24 24" id="fluent-filter" xmlns="http://www.w3.org/2000/svg"><path d="M2.625 5.625A1.125 1.125 0 013.75 4.5h16.5a1.125 1.125 0 010 2.25H3.75a1.125 1.125 0 01-1.125-1.125zm3 6A1.125 1.125 0 016.75 10.5h10.5a1.125 1.125 0 110 2.25H6.75a1.125 1.125 0 01-1.125-1.125zm3 6A1.125 1.125 0 019.75 16.5h4.5a1.125 1.125 0 110 2.25h-4.5a1.125 1.125 0 01-1.125-1.125z" fill="#E5004F"/></svg><svg fill="none" viewBox="0 0 180 52" id="googleplay_dark" xmlns="http://www.w3.org/2000/svg"><path d="M173.333 52H6.667C3.002 52 0 49.073 0 45.5v-39C0 2.927 3.002 0 6.667 0h166.666C176.998 0 180 2.927 180 6.5v39c0 3.573-3.002 6.5-6.667 6.5z" fill="#000"/><path d="M173.333 1.042c3.087 0 5.599 2.449 5.599 5.458v39c0 3.01-2.512 5.458-5.599 5.458H6.667c-3.087 0-5.599-2.448-5.599-5.458v-39c0-3.01 2.512-5.458 5.599-5.458h166.666zm0-1.042H6.667C3.002 0 0 2.927 0 6.5v39C0 49.073 3.002 52 6.667 52h166.666c3.665 0 6.667-2.927 6.667-6.5v-39c0-3.573-3.002-6.5-6.667-6.5z" fill="#A6A6A6"/><path d="M63.223 13.318c0 1.085-.333 1.955-.99 2.603-.755.769-1.738 1.156-2.943 1.156-1.152 0-2.135-.394-2.942-1.169-.808-.786-1.211-1.752-1.211-2.907s.403-2.12 1.211-2.9c.807-.782 1.79-1.176 2.942-1.176.573 0 1.12.116 1.642.33.52.216.943.509 1.25.87l-.697.685c-.535-.616-1.263-.92-2.195-.92-.84 0-1.568.287-2.187.864-.611.578-.918 1.327-.918 2.247 0 .92.307 1.675.918 2.254.619.57 1.347.863 2.187.863.892 0 1.642-.293 2.233-.87.39-.381.612-.908.67-1.58H59.29v-.94h3.873c.047.203.06.4.06.59zM69.368 10.06H65.73v2.47h3.28v.94h-3.28v2.47h3.638v.957H64.7V9.104h4.668v.957zM73.705 16.897h-1.03V10.06h-2.232v-.957h5.495v.957h-2.233v6.836zM79.915 16.897V9.104h1.028v7.793h-1.028zM85.502 16.897H84.48V10.06h-2.24v-.957h5.502v.957h-2.24v6.836zM98.145 15.895c-.789.788-1.765 1.182-2.93 1.182-1.172 0-2.149-.394-2.937-1.182-.787-.786-1.178-1.752-1.178-2.894 0-1.143.391-2.108 1.178-2.894.788-.788 1.765-1.182 2.937-1.182 1.158 0 2.135.394 2.923 1.188.793.793 1.185 1.752 1.185 2.888 0 1.142-.392 2.108-1.178 2.894zm-5.105-.653c.593.583 1.315.876 2.175.876.853 0 1.581-.293 2.168-.876.592-.584.892-1.333.892-2.241 0-.909-.3-1.658-.892-2.241-.587-.583-1.315-.876-2.168-.876-.86 0-1.582.293-2.175.876-.592.583-.892 1.332-.892 2.24 0 .91.3 1.659.892 2.242zM100.769 16.897V9.104h1.25l3.886 6.06h.045l-.045-1.498V9.104h1.028v7.793h-1.073l-4.07-6.36h-.045l.045 1.504v4.856h-1.021z" fill="#fff" stroke="#fff" stroke-width=".16" stroke-miterlimit="10"/><path d="M90.846 28.278c-3.131 0-5.69 2.324-5.69 5.53 0 3.18 2.559 5.528 5.69 5.528 3.139 0 5.697-2.348 5.697-5.528 0-3.206-2.558-5.53-5.697-5.53zm0 8.88c-1.718 0-3.196-1.382-3.196-3.35 0-1.994 1.478-3.352 3.196-3.352 1.719 0 3.204 1.358 3.204 3.352 0 1.968-1.485 3.35-3.204 3.35zm-12.415-8.88c-3.138 0-5.69 2.324-5.69 5.53 0 3.18 2.552 5.528 5.69 5.528 3.137 0 5.69-2.348 5.69-5.528 0-3.206-2.553-5.53-5.69-5.53zm0 8.88c-1.72 0-3.203-1.382-3.203-3.35 0-1.994 1.483-3.352 3.203-3.352 1.719 0 3.197 1.358 3.197 3.352 0 1.968-1.478 3.35-3.197 3.35zm-14.773-7.185v2.35h5.755c-.168 1.313-.618 2.278-1.308 2.95-.84.813-2.149 1.715-4.447 1.715-3.542 0-6.315-2.787-6.315-6.24 0-3.453 2.773-6.24 6.315-6.24 1.915 0 3.308.73 4.337 1.675l1.698-1.655c-1.438-1.34-3.352-2.368-6.035-2.368-4.857 0-8.938 3.853-8.938 8.588 0 4.735 4.081 8.588 8.938 8.588 2.625 0 4.597-.838 6.147-2.411 1.588-1.55 2.083-3.726 2.083-5.485 0-.546-.047-1.048-.13-1.467h-8.1zm60.41 1.822c-.468-1.237-1.913-3.517-4.857-3.517-2.916 0-5.345 2.24-5.345 5.53 0 3.097 2.404 5.528 5.625 5.528a5.655 5.655 0 004.727-2.45l-1.933-1.257c-.645.92-1.524 1.53-2.794 1.53-1.261 0-2.166-.564-2.746-1.676l7.585-3.06-.262-.629zm-7.733 1.84a3.068 3.068 0 012.961-3.223c.99 0 1.83.482 2.11 1.173l-5.071 2.05zM110.17 39h2.493V22.75h-2.493V39zm-4.084-9.49h-.083c-.56-.647-1.628-1.232-2.982-1.232-2.84 0-5.436 2.431-5.436 5.548 0 3.099 2.596 5.51 5.436 5.51 1.354 0 2.422-.59 2.982-1.256h.083v.793c0 2.114-1.158 3.25-3.026 3.25-1.524 0-2.469-1.073-2.859-1.974l-2.168.882c.625 1.466 2.28 3.27 5.027 3.27 2.923 0 5.39-1.678 5.39-5.758v-9.929h-2.364v.896zm-2.851 7.648c-1.719 0-3.157-1.402-3.157-3.332 0-1.949 1.438-3.37 3.157-3.37 1.693 0 3.028 1.421 3.028 3.37 0 1.93-1.335 3.332-3.028 3.332zm32.506-14.408h-5.963V39h2.487v-6.157h3.476c2.762 0 5.47-1.949 5.47-5.048 0-3.097-2.715-5.045-5.47-5.045zm.065 7.832h-3.541V25.01h3.541c1.857 0 2.917 1.503 2.917 2.785 0 1.258-1.06 2.787-2.917 2.787zm15.372-2.335c-1.797 0-3.665.774-4.433 2.488l2.206.902c.475-.902 1.349-1.195 2.272-1.195 1.29 0 2.598.756 2.618 2.09v.17c-.45-.253-1.413-.628-2.598-.628-2.377 0-4.798 1.276-4.798 3.656 0 2.178 1.946 3.58 4.135 3.58 1.673 0 2.596-.736 3.176-1.593h.085v1.257h2.402V32.74c0-2.88-2.207-4.493-5.065-4.493zm-.3 8.905c-.813 0-1.947-.393-1.947-1.376 0-1.258 1.414-1.74 2.637-1.74 1.095 0 1.608.235 2.273.545-.195 1.505-1.523 2.571-2.963 2.571zm14.115-8.549l-2.858 7.044h-.085l-2.955-7.044h-2.682l4.44 9.844-2.533 5.478h2.598l6.842-15.322h-2.767zM142.578 39h2.493V22.75h-2.493V39z" fill="#fff"/><path d="M13.914 9.801c-.392.4-.619 1.022-.619 1.828v28.75c0 .805.227 1.428.619 1.827l.096.088L30.534 26.19v-.38L14.01 9.706l-.096.094z" fill="url(#kpaint0_linear)"/><path d="M36.035 31.561l-5.502-5.37v-.38l5.508-5.371.124.07 6.523 3.618c1.862 1.027 1.862 2.717 0 3.75l-6.523 3.613-.13.07z" fill="url(#kpaint1_linear)"/><path d="M36.165 31.492L30.533 26l-16.62 16.206c.618.634 1.627.71 2.773.076l19.479-10.791z" fill="url(#kpaint2_linear)"/><path d="M36.165 20.509L16.686 9.717c-1.146-.627-2.155-.551-2.773.083L30.533 26l5.632-5.491z" fill="url(#kpaint3_linear)"/><defs><linearGradient id="kpaint0_linear" x1="29.067" y1="40.678" x2="7.257" y2="18.308" gradientUnits="userSpaceOnUse"><stop stop-color="#00A0FF"/><stop offset=".007" stop-color="#00A1FF"/><stop offset=".26" stop-color="#00BEFF"/><stop offset=".512" stop-color="#00D2FF"/><stop offset=".76" stop-color="#00DFFF"/><stop offset="1" stop-color="#00E3FF"/></linearGradient><linearGradient id="kpaint1_linear" x1="45.112" y1="25.999" x2="12.85" y2="25.999" gradientUnits="userSpaceOnUse"><stop stop-color="#FFE000"/><stop offset=".409" stop-color="#FFBD00"/><stop offset=".775" stop-color="orange"/><stop offset="1" stop-color="#FF9C00"/></linearGradient><linearGradient id="kpaint2_linear" x1="33.102" y1="23.016" x2="3.526" y2="-7.318" gradientUnits="userSpaceOnUse"><stop stop-color="#FF3A44"/><stop offset="1" stop-color="#C31162"/></linearGradient><linearGradient id="kpaint3_linear" x1="9.729" y1="51.771" x2="22.937" y2="38.225" gradientUnits="userSpaceOnUse"><stop stop-color="#32A071"/><stop offset=".069" stop-color="#2DA771"/><stop offset=".476" stop-color="#15CF74"/><stop offset=".801" stop-color="#06E775"/><stop offset="1" stop-color="#00F076"/></linearGradient></defs></svg><svg fill="none" viewBox="0 0 180 52" id="googleplay_light" xmlns="http://www.w3.org/2000/svg"><path d="M173.333 52H6.667C3.002 52 0 49.073 0 45.5v-39C0 2.927 3.002 0 6.667 0h166.666C176.998 0 180 2.927 180 6.5v39c0 3.573-3.002 6.5-6.667 6.5z" fill="#fff"/><path d="M173.333 1.042c3.087 0 5.599 2.449 5.599 5.458v39c0 3.01-2.512 5.458-5.599 5.458H6.667c-3.087 0-5.599-2.448-5.599-5.458v-39c0-3.01 2.512-5.458 5.599-5.458h166.666zm0-1.042H6.667C3.002 0 0 2.927 0 6.5v39C0 49.073 3.002 52 6.667 52h166.666c3.665 0 6.667-2.927 6.667-6.5v-39c0-3.573-3.002-6.5-6.667-6.5z" fill="#A6A6A6"/><path d="M63.223 13.318c0 1.085-.333 1.955-.99 2.603-.755.769-1.738 1.156-2.943 1.156-1.152 0-2.135-.394-2.942-1.169-.808-.786-1.211-1.752-1.211-2.907s.403-2.12 1.211-2.9c.807-.782 1.79-1.176 2.942-1.176.573 0 1.12.116 1.642.33.52.216.943.509 1.25.87l-.697.685c-.535-.616-1.263-.92-2.195-.92-.84 0-1.568.287-2.187.864-.611.578-.918 1.327-.918 2.247 0 .92.307 1.675.918 2.254.619.57 1.347.863 2.187.863.892 0 1.642-.293 2.233-.87.39-.381.612-.908.67-1.58H59.29v-.94h3.873c.047.203.06.4.06.59zM69.368 10.06H65.73v2.47h3.28v.94h-3.28v2.47h3.638v.957H64.7V9.104h4.668v.957zM73.705 16.897h-1.03V10.06h-2.232v-.957h5.495v.957h-2.233v6.836zM79.915 16.897V9.104h1.028v7.793h-1.028zM85.502 16.897H84.48V10.06h-2.24v-.957h5.502v.957h-2.24v6.836zM98.145 15.895c-.789.788-1.765 1.182-2.93 1.182-1.172 0-2.149-.394-2.937-1.182-.787-.786-1.178-1.752-1.178-2.894 0-1.143.391-2.108 1.178-2.894.788-.788 1.765-1.182 2.937-1.182 1.158 0 2.135.394 2.923 1.188.793.793 1.185 1.752 1.185 2.888 0 1.142-.392 2.108-1.178 2.894zm-5.105-.653c.593.583 1.315.876 2.175.876.853 0 1.581-.293 2.168-.876.592-.584.892-1.333.892-2.241 0-.909-.3-1.658-.892-2.241-.587-.583-1.315-.876-2.168-.876-.86 0-1.582.293-2.175.876-.592.583-.892 1.332-.892 2.24 0 .91.3 1.659.892 2.242zM100.769 16.897V9.104h1.25l3.886 6.06h.045l-.045-1.498V9.104h1.028v7.793h-1.073l-4.07-6.36h-.045l.045 1.504v4.856h-1.021z" fill="#000" stroke="#000" stroke-width=".16" stroke-miterlimit="10"/><path d="M90.846 28.278c-3.131 0-5.69 2.324-5.69 5.53 0 3.18 2.559 5.528 5.69 5.528 3.139 0 5.697-2.348 5.697-5.528 0-3.206-2.558-5.53-5.697-5.53zm0 8.88c-1.718 0-3.196-1.382-3.196-3.35 0-1.994 1.478-3.352 3.196-3.352 1.719 0 3.204 1.358 3.204 3.352 0 1.968-1.485 3.35-3.204 3.35zm-12.415-8.88c-3.138 0-5.69 2.324-5.69 5.53 0 3.18 2.552 5.528 5.69 5.528 3.137 0 5.69-2.348 5.69-5.528 0-3.206-2.553-5.53-5.69-5.53zm0 8.88c-1.72 0-3.203-1.382-3.203-3.35 0-1.994 1.483-3.352 3.203-3.352 1.719 0 3.197 1.358 3.197 3.352 0 1.968-1.478 3.35-3.197 3.35zm-14.773-7.185v2.35h5.755c-.168 1.313-.618 2.278-1.308 2.95-.84.813-2.149 1.715-4.447 1.715-3.542 0-6.315-2.787-6.315-6.24 0-3.453 2.773-6.24 6.315-6.24 1.915 0 3.308.73 4.337 1.675l1.698-1.655c-1.438-1.34-3.352-2.368-6.035-2.368-4.857 0-8.938 3.853-8.938 8.588 0 4.735 4.081 8.588 8.938 8.588 2.625 0 4.597-.838 6.147-2.411 1.588-1.55 2.083-3.726 2.083-5.485 0-.546-.047-1.048-.13-1.467h-8.1zm60.41 1.822c-.468-1.237-1.913-3.517-4.857-3.517-2.916 0-5.345 2.24-5.345 5.53 0 3.097 2.404 5.528 5.625 5.528a5.655 5.655 0 004.727-2.45l-1.933-1.257c-.645.92-1.524 1.53-2.794 1.53-1.261 0-2.166-.564-2.746-1.676l7.585-3.06-.262-.629zm-7.733 1.84a3.068 3.068 0 012.961-3.223c.99 0 1.83.482 2.11 1.173l-5.071 2.05zM110.17 39h2.493V22.75h-2.493V39zm-4.084-9.49h-.083c-.56-.647-1.628-1.232-2.982-1.232-2.84 0-5.436 2.431-5.436 5.548 0 3.099 2.596 5.51 5.436 5.51 1.354 0 2.422-.59 2.982-1.256h.083v.793c0 2.114-1.158 3.25-3.026 3.25-1.524 0-2.469-1.073-2.859-1.974l-2.168.882c.625 1.466 2.28 3.27 5.027 3.27 2.923 0 5.39-1.678 5.39-5.758v-9.929h-2.364v.896zm-2.851 7.648c-1.719 0-3.157-1.402-3.157-3.332 0-1.949 1.438-3.37 3.157-3.37 1.693 0 3.028 1.421 3.028 3.37 0 1.93-1.335 3.332-3.028 3.332zm32.506-14.408h-5.963V39h2.487v-6.157h3.476c2.762 0 5.47-1.949 5.47-5.048 0-3.097-2.715-5.045-5.47-5.045zm.065 7.832h-3.541V25.01h3.541c1.857 0 2.917 1.503 2.917 2.785 0 1.258-1.06 2.787-2.917 2.787zm15.372-2.335c-1.797 0-3.665.774-4.433 2.488l2.206.902c.475-.902 1.349-1.195 2.272-1.195 1.29 0 2.598.756 2.618 2.09v.17c-.45-.253-1.413-.628-2.598-.628-2.377 0-4.798 1.276-4.798 3.656 0 2.178 1.946 3.58 4.135 3.58 1.673 0 2.596-.736 3.176-1.593h.085v1.257h2.402V32.74c0-2.88-2.207-4.493-5.065-4.493zm-.3 8.905c-.813 0-1.947-.393-1.947-1.376 0-1.258 1.414-1.74 2.637-1.74 1.095 0 1.608.235 2.273.545-.195 1.505-1.523 2.571-2.963 2.571zm14.115-8.549l-2.858 7.044h-.085l-2.955-7.044h-2.682l4.44 9.844-2.533 5.478h2.598l6.842-15.322h-2.767zM142.578 39h2.493V22.75h-2.493V39z" fill="#000"/><path d="M13.914 9.801c-.392.4-.619 1.022-.619 1.828v28.75c0 .805.227 1.428.619 1.827l.096.088L30.534 26.19v-.38L14.01 9.706l-.096.094z" fill="url(#lpaint0_linear)"/><path d="M36.035 31.561l-5.502-5.37v-.38l5.508-5.371.124.07 6.523 3.618c1.862 1.027 1.862 2.717 0 3.75l-6.523 3.613-.13.07z" fill="url(#lpaint1_linear)"/><path d="M36.165 31.492L30.533 26l-16.62 16.206c.618.634 1.627.71 2.773.076l19.479-10.791z" fill="url(#lpaint2_linear)"/><path d="M36.165 20.509L16.686 9.717c-1.146-.627-2.155-.551-2.773.083L30.533 26l5.632-5.491z" fill="url(#lpaint3_linear)"/><defs><linearGradient id="lpaint0_linear" x1="29.067" y1="40.678" x2="7.257" y2="18.308" gradientUnits="userSpaceOnUse"><stop stop-color="#00A0FF"/><stop offset=".007" stop-color="#00A1FF"/><stop offset=".26" stop-color="#00BEFF"/><stop offset=".512" stop-color="#00D2FF"/><stop offset=".76" stop-color="#00DFFF"/><stop offset="1" stop-color="#00E3FF"/></linearGradient><linearGradient id="lpaint1_linear" x1="45.112" y1="25.999" x2="12.85" y2="25.999" gradientUnits="userSpaceOnUse"><stop stop-color="#FFE000"/><stop offset=".409" stop-color="#FFBD00"/><stop offset=".775" stop-color="orange"/><stop offset="1" stop-color="#FF9C00"/></linearGradient><linearGradient id="lpaint2_linear" x1="33.102" y1="23.016" x2="3.526" y2="-7.318" gradientUnits="userSpaceOnUse"><stop stop-color="#FF3A44"/><stop offset="1" stop-color="#C31162"/></linearGradient><linearGradient id="lpaint3_linear" x1="9.729" y1="51.771" x2="22.937" y2="38.225" gradientUnits="userSpaceOnUse"><stop stop-color="#32A071"/><stop offset=".069" stop-color="#2DA771"/><stop offset=".476" stop-color="#15CF74"/><stop offset=".801" stop-color="#06E775"/><stop offset="1" stop-color="#00F076"/></linearGradient></defs></svg><svg fill="none" viewBox="0 0 18 18" id="goto__arrow" xmlns="http://www.w3.org/2000/svg"><path d="M17 1L1 17M17 14.333V1H3.667" stroke="#fff" stroke-width="2" stroke-linecap="round" stroke-linejoin="round"/></svg><svg fill="none" viewBox="0 0 32 32" id="insta_desk" xmlns="http://www.w3.org/2000/svg"><path d="M16 .348c4.253 0 4.783.015 6.452.094 1.667.078 2.801.34 3.8.728a7.632 7.632 0 012.774 1.804 7.683 7.683 0 011.804 2.774c.387.997.65 2.133.728 3.8.074 1.669.094 2.2.094 6.452 0 4.253-.016 4.783-.094 6.452-.078 1.667-.341 2.802-.728 3.8a7.643 7.643 0 01-1.804 2.774 7.694 7.694 0 01-2.774 1.805c-.997.386-2.133.649-3.8.727-1.669.074-2.2.094-6.452.094-4.253 0-4.784-.015-6.452-.094-1.667-.078-2.802-.34-3.8-.727a7.655 7.655 0 01-2.774-1.805 7.677 7.677 0 01-1.805-2.774c-.388-.997-.65-2.133-.727-3.8C.368 20.783.348 20.252.348 16c0-4.253.015-4.783.094-6.452.078-1.668.34-2.802.727-3.8a7.638 7.638 0 011.805-2.774A7.665 7.665 0 015.748 1.17C6.746.78 7.879.52 9.548.442 11.216.368 11.748.348 16 .348zm0 7.826a7.826 7.826 0 100 15.652 7.826 7.826 0 000-15.652zm10.174-.391a1.957 1.957 0 10-3.913 0 1.957 1.957 0 003.913 0zM16 11.304a4.696 4.696 0 110 9.392 4.696 4.696 0 010-9.392z" fill="#B694C0"/></svg><svg fill="none" viewBox="0 0 20 12" id="link-to-top" xmlns="http://www.w3.org/2000/svg"><path fill-rule="evenodd" clip-rule="evenodd" d="M19.53 11.032a.75.75 0 01-1.061 0l-8.47-8.47-8.468 8.47A.75.75 0 11.469 9.97l9-9a.75.75 0 011.062 0l9 9a.75.75 0 010 1.062z" fill="#B694C0"/></svg><svg fill="none" viewBox="0 0 10 16" id="location-mob" xmlns="http://www.w3.org/2000/svg"><path d="M5 0C2.238 0 0 2.23 0 4.993 0 9.77 5 16 5 16s5-6.23 5-11.007A4.994 4.994 0 005 0zm0 7.756a2.7 2.7 0 01-2.7-2.702A2.703 2.703 0 015 2.352a2.7 2.7 0 012.7 2.702A2.703 2.703 0 015 7.756z" fill="#FFA6C4"/></svg><svg fill="none" viewBox="0 0 24 29" id="location_desk" xmlns="http://www.w3.org/2000/svg"><path d="M12 .333a12 12 0 0112 12c0 4.968-3.787 10.174-11.2 15.734a1.333 1.333 0 01-1.6 0C3.787 22.507 0 17.3 0 12.333a12 12 0 0112-12zm0 8a4 4 0 100 8 4 4 0 000-8z" fill="#B694C0"/></svg><svg fill="none" viewBox="0 0 22 14" id="menu-arrow-right" xmlns="http://www.w3.org/2000/svg"><path fill-rule="evenodd" clip-rule="evenodd" d="M.002 7c0 .206.079.404.22.55.14.146.331.228.53.228H18.44l-4.72 4.893a.779.779 0 00-.22.55.804.804 0 00.22.55.749.749 0 00.531.229.726.726 0 00.531-.228l6-6.221a.78.78 0 00.22-.551.803.803 0 00-.22-.55l-6-6.222A.75.75 0 0014.251 0a.727.727 0 00-.53.228.78.78 0 00-.22.55.804.804 0 00.22.551l4.72 4.893H.75a.737.737 0 00-.53.228.792.792 0 00-.219.55z" fill="#5C3668"/></svg><svg fill="none" viewBox="0 0 14 8" id="menu_arrow_down" xmlns="http://www.w3.org/2000/svg"><path fill-rule="evenodd" clip-rule="evenodd" d="M13.354.645a.5.5 0 00-.708 0L7 6.292 1.354.645a.5.5 0 00-.708.708l6 6a.5.5 0 00.708 0l6-6a.5.5 0 000-.708z" fill="#000"/></svg><svg fill="none" viewBox="0 0 14 8" id="menu_arrow_up" xmlns="http://www.w3.org/2000/svg"><path fill-rule="evenodd" clip-rule="evenodd" d="M13.354 7.355a.499.499 0 01-.708 0L7 1.708 1.354 7.355a.5.5 0 01-.708-.708l6-6a.5.5 0 01.708 0l6 6a.5.5 0 010 .708z" fill="#E5004F"/></svg><svg fill="none" viewBox="0 0 32 32" id="msg-dialog" xmlns="http://www.w3.org/2000/svg"><path d="M28.8 9.6v11.2c0 1.76-1.44 3.2-3.2 3.2h-6.4v4.8L12.8 24H6.4c-1.762 0-3.2-1.44-3.2-3.2V9.6c0-1.76 1.438-3.2 3.2-3.2h19.2c1.76 0 3.2 1.44 3.2 3.2z" fill="#fff"/></svg><svg fill="none" viewBox="0 0 16 16" id="search-mob" xmlns="http://www.w3.org/2000/svg"><path d="M6.842 0A6.85 6.85 0 000 6.842a6.85 6.85 0 006.842 6.842 6.8 6.8 0 004.188-1.444L14.79 16 16 14.79l-3.76-3.759a6.801 6.801 0 001.444-4.189A6.85 6.85 0 006.842 0z" fill="#FFA6C4"/></svg><svg fill="none" viewBox="0 0 32 32" id="tel_desk" xmlns="http://www.w3.org/2000/svg"><path d="M22.39 7.724l-6 6 1.886 1.885 6-6L28 13.333V4h-9.333l3.724 3.724z" fill="#B694C0"/><path d="M21.896 17.928a1.335 1.335 0 00-1.854.057l-3.191 3.282c-.768-.147-2.312-.628-3.901-2.214-1.59-1.59-2.071-3.138-2.214-3.901l3.279-3.192a1.333 1.333 0 00.057-1.855L9.146 4.688a1.333 1.333 0 00-1.855-.116L4.399 7.053c-.231.23-.37.538-.388.864-.02.334-.401 8.23 5.721 14.355 5.342 5.341 12.032 5.732 13.875 5.732.27 0 .435-.008.479-.01.326-.019.634-.157.864-.389l2.48-2.894a1.333 1.333 0 00-.115-1.855l-5.419-4.928z" fill="#B694C0"/></svg><svg fill="none" viewBox="0 0 75 88" id="video-play" xmlns="http://www.w3.org/2000/svg"><path d="M75 44L0 87.301V.7L75 44z" fill="#fff"/></svg><svg fill="none" viewBox="0 0 32 25" id="youtube_desk" xmlns="http://www.w3.org/2000/svg"><path d="M16 .68C.275.68 0 2.042 0 12.68s.275 12 16 12 16-1.362 16-12-.275-12-16-12zm5.128 12.52l-7.184 3.267c-.629.284-1.144-.034-1.144-.71V9.603c0-.675.515-.995 1.144-.711l7.184 3.266c.629.287.629.755 0 1.041z" fill="#B694C0"/></svg></svg>