<svg id="energym-text" viewBox="0 0 640 105" fill="none" xmlns="http://www.w3.org/2000/svg"><path opacity=".5" d="M51.56 102v1h1v-1h-1zm-79.92 0h-1v1h1v-1zm0-100.8v-1h-1v1h1zm79.92 0h1v-1h-1v1zm0 20.16v1h1v-1h-1zm-54 0v-1h-1v1h1zm0 19.44h-1v1h1v-1zm42.48 0h1v-1h-1v1zm0 20.16v1h1v-1h-1zm-42.48 0v-1h-1v1h1zm0 20.88h-1v1h1v-1zm54 0h1v-1h-1v1zm0 19.16h-79.92v2h79.92v-2zm-78.92 1V1.2h-2V102h2zm-1-99.8h79.92v-2h-79.92v2zm78.92-1v20.16h2V1.2h-2zm1 19.16h-54v2h54v-2zm-55 1V40.8h2V21.36h-2zm1 20.44h42.48v-2H-2.44v2zm41.48-1v20.16h2V40.8h-2zm1 19.16H-2.44v2h42.48v-2zm-43.48 1v20.88h2V60.96h-2zm1 21.88h54v-2h-54v2zm53-1V102h2V81.84h-2zM150.886 102v1h1v-1h-1zm-27.36 0l-.868.496.288.504h.58v-1zm-34.56-60.48l.869-.496-1.869-3.27v3.766h1zm0 60.48v1h1v-1h-1zm-25.92 0h-1v1h1v-1zm0-100.8v-1h-1v1h1zm27.36 0l.868-.496L90.987.2h-.58v1zm34.56 60.48l-.868.496 1.868 3.27V61.68h-1zm0-60.48v-1h-1v1h1zm25.92 0h1v-1h-1v1zm0 99.8h-27.36v2h27.36v-2zm-26.491.504l-34.56-60.48-1.737.992 34.56 60.48 1.737-.992zM87.966 41.52V102h2V41.52h-2zm1 59.48h-25.92v2h25.92v-2zm-24.92 1V1.2h-2V102h2zm-1-99.8h27.36v-2h-27.36v2zm26.492-.504l34.56 60.48 1.736-.992L91.274.704l-1.736.992zm36.428 59.984V1.2h-2v60.48h2zm-1-59.48h25.92v-2h-25.92v2zm24.92-1V102h2V1.2h-2zM248.154 102v1h1v-1h-1zm-79.92 0h-1v1h1v-1zm0-100.8v-1h-1v1h1zm79.92 0h1v-1h-1v1zm0 20.16v1h1v-1h-1zm-54 0v-1h-1v1h1zm0 19.44h-1v1h1v-1zm42.48 0h1v-1h-1v1zm0 20.16v1h1v-1h-1zm-42.48 0v-1h-1v1h1zm0 20.88h-1v1h1v-1zm54 0h1v-1h-1v1zm0 19.16h-79.92v2h79.92v-2zm-78.92 1V1.2h-2V102h2zm-1-99.8h79.92v-2h-79.92v2zm78.92-1v20.16h2V1.2h-2zm1 19.16h-54v2h54v-2zm-55 1V40.8h2V21.36h-2zm1 20.44h42.48v-2h-42.48v2zm41.48-1v20.16h2V40.8h-2zm1 19.16h-42.48v2h42.48v-2zm-43.48 1v20.88h2V60.96h-2zm1 21.88h54v-2h-54v2zm53-1V102h2V81.84h-2zM259.64 1.2v-1h-1v1h1zm82.368 6.912l-.715.7.008.007.007.008.7-.715zm2.88 53.424l-.854-.52-.004.007-.004.007.862.506zM332.36 70.32l-.243-.97-1.277.32.651 1.144.869-.494zm18 31.68v1h1.718l-.849-1.494-.869.494zm-28.08 0l-.877.48.285.52h.592v-1zm-16.56-30.24l.877-.48-.285-.52h-.592v1zm-20.16 0v-1h-1v1h1zm0 30.24v1h1v-1h-1zm-25.92 0h-1v1h1v-1zm25.92-80.64v-1h-1v1h1zm0 30.24h-1v1h1v-1zM259.64 2.2h60.48v-2h-60.48v2zm60.48 0c9.959 0 16.932 2.28 21.173 6.612l1.43-1.4C337.94 2.528 330.321.2 320.12.2v2zm21.188 6.627c4.332 4.24 6.612 11.214 6.612 21.173h2c0-10.201-2.328-17.82-7.212-22.603l-1.4 1.43zM347.92 30v12.96h2V30h-2zm0 12.96c0 7.876-1.332 13.86-3.886 18.056l1.708 1.04c2.822-4.636 4.178-11.036 4.178-19.096h-2zm-3.894 18.07c-2.435 4.147-6.364 6.934-11.909 8.32l.486 1.94c5.975-1.494 10.398-4.563 13.147-9.248l-1.724-1.012zm-12.535 9.784l18 31.68 1.738-.988-18-31.68-1.738.988zM350.36 101h-28.08v2h28.08v-2zm-27.203.52l-16.56-30.24-1.754.96 16.56 30.24 1.754-.96zM305.72 70.76h-20.16v2h20.16v-2zm-21.16 1V102h2V71.76h-2zm1 29.24h-25.92v2h25.92v-2zm-24.92 1V1.2h-2V102h2zM324 30c0-3.034-.759-5.493-2.453-7.187s-4.153-2.453-7.187-2.453v2c2.726 0 4.587.68 5.773 1.867C321.319 25.413 322 27.274 322 30h2zm-9.64-9.64h-28.8v2h28.8v-2zm-29.8 1V51.6h2V21.36h-2zm1 31.24h28.8v-2h-28.8v2zm28.8 0c3.034 0 5.493-.76 7.187-2.453 1.694-1.694 2.453-4.153 2.453-7.187h-2c0 2.726-.681 4.587-1.867 5.773s-3.047 1.867-5.773 1.867v2zm9.64-9.64V30h-2v12.96h2zm125.681 56.88l.106.994.894-.095v-.899h-1zm-82.656-3.024l.707-.707-.707.707zm.144-88.704l.707.707-.707-.707zM441.041 1.2h1v-1h-1v1zm0 20.16v1h1v-1h-1zm-52.848 60.048l-.733.68.025.028.027.025.681-.733zm35.568 1.152l.052.999.948-.05v-.949h-1zm0-20.88h1v-1h-1v1zm-18.72 0h-1v1h1v-1zm0-17.28v-1h-1v1h1zm44.64 0h1v-1h-1v1zm-.107 54.446c-22.435 2.397-43.039 3.594-61.813 3.594v2c18.857 0 39.533-1.203 62.026-3.606l-.213-1.988zm-61.813 3.594c-9.276 0-15.877-2.179-20.029-6.331l-1.414 1.414c4.68 4.68 11.902 6.917 21.443 6.917v-2zm-20.029-6.331c-4.152-4.152-6.331-10.754-6.331-20.029h-2c0 9.54 2.236 16.763 6.917 21.443l1.414-1.414zm-6.331-20.029V30h-2v46.08h2zm0-46.08c0-9.963 2.234-16.94 6.475-21.18l-1.414-1.415c-4.784 4.783-7.061 12.398-7.061 22.595h2zm6.475-21.18c4.339-4.34 11.368-6.62 21.325-6.62v-2c-10.204 0-17.863 2.329-22.739 7.205l1.414 1.414zm21.325-6.62h51.84v-2h-51.84v2zm50.84-1v20.16h2V1.2h-2zm1 19.16h-46.08v2h46.08v-2zm-46.08 0c-3.035 0-5.494.76-7.187 2.453-1.694 1.694-2.453 4.153-2.453 7.187h2c0-2.726.68-4.587 1.867-5.773 1.186-1.186 3.047-1.867 5.773-1.867v-2zm-9.64 9.64v46.08h2V30h-2zm0 46.08c0 2.406.685 4.443 2.139 6.008l1.465-1.36c-1.042-1.123-1.604-2.638-1.604-4.648h-2zm2.191 6.06c1.565 1.454 3.603 2.14 6.009 2.14v-2c-2.01 0-3.525-.562-4.648-1.605l-1.361 1.466zm6.009 2.14c11.054 0 21.152-.24 30.292-.721l-.105-1.998c-9.099.48-19.161.719-30.187.719v2zm31.24-1.72V61.68h-2v20.88h2zm-1-21.88h-18.72v2h18.72v-2zm-17.72 1V44.4h-2v17.28h2zm-1-16.28h44.64v-2h-44.64v2zm43.64-1v55.44h2V44.4h-2zm-1.858-43.2v-1h-1.639l.75 1.458.889-.458zm27.36 0l.9-.437-.274-.563h-.626v1zm23.76 48.96l-.9.437.9 1.853.9-1.853-.9-.437zm23.76-48.96v-1h-.626l-.274.563.9.437zm27.36 0l.889.458.75-1.458h-1.639v1zm-38.16 74.16l-.889-.457-.111.215v.242h1zm0 26.64v1h1v-1h-1zm-25.92 0h-1v1h1v-1zm0-26.64h1v-.242l-.111-.215-.889.457zM446.823 2.2h27.36v-2h-27.36v2zm26.46-.563l23.76 48.96 1.8-.874-23.76-48.96-1.8.874zm25.56 48.96l23.76-48.96-1.8-.874-23.76 48.96 1.8.874zM521.703 2.2h27.36v-2h-27.36v2zM548.174.742l-38.16 74.16 1.778.915 38.16-74.16-1.778-.915zM509.903 75.36V102h2V75.36h-2zm1 25.64h-25.92v2h25.92v-2zm-24.92 1V75.36h-2V102h2zm-.111-27.097L447.712.743l-1.778.915 38.16 74.16 1.778-.915zm155.34-29.063h1v-3.832l-1.873 3.343.873.489zm-20.16 36v1h.586l.286-.511-.872-.489zm-20.16 0l-.873.489.287.511h.586v-1zm-20.16-36l.872-.489-1.872-3.343v3.832h1zm0 56.16v1h1v-1h-1zm-25.92 0h-1v1h1v-1zm0-100.8v-1h-1v1h1zm27.36 0l.88-.476-.284-.524h-.596v1zm28.8 53.28l-.88.476.88 1.627.88-1.627-.88-.476zm28.8-53.28v-1h-.596l-.284.524.88.476zm27.36 0h1v-1h-1v1zm0 100.8v1h1v-1h-1zm-25.92 0h-1v1h1v-1zm-.873-56.649l-20.16 36 1.745.978 20.16-36-1.745-.978zM621.052 80.84h-20.16v2h20.16v-2zm-19.288.511l-20.16-36-1.745.978 20.16 36 1.745-.978zM579.732 45.84V102h2V45.84h-2zm1 55.16h-25.92v2h25.92v-2zm-24.92 1V1.2h-2V102h2zm-1-99.8h27.36v-2h-27.36v2zm26.48-.524l28.8 53.28 1.76-.952-28.8-53.28-1.76.952zm30.56 53.28l28.8-53.28-1.76-.952-28.8 53.28 1.76.952zM639.772 2.2h27.36v-2h-27.36v2zm26.36-1V102h2V1.2h-2zm1 99.8h-25.92v2h25.92v-2zm-24.92 1V45.84h-2V102h2z" fill="#FFA6C4"/></svg>